<?xml version="1.0" encoding="UTF-8" standalone="no"?><!DOCTYPE svg PUBLIC "-//W3C//DTD SVG 1.1//EN" "http://www.w3.org/Graphics/SVG/1.1/DTD/svg11.dtd"><svg width="100%" height="100%" viewBox="0 0 1200 256" version="1.1" xmlns="http://www.w3.org/2000/svg" xmlns:xlink="http://www.w3.org/1999/xlink" xml:space="preserve" xmlns:serif="http://www.serif.com/" style="fill-rule:evenodd;clip-rule:evenodd;stroke-linejoin:round;stroke-miterlimit:2;"><path d="M67.976,222.942c2.9,0 4.75,0.575 5.659,1.75c0.733,0.954 0.85,2.3 0.358,4.113c-1.2,4.466 -5.175,6.47 -11.8,5.966c0,0 -1.513,-0.116 -1.529,-0.116c0.212,-0.017 3.254,-11.284 3.258,-11.309c0.013,0.1 4.054,-0.404 4.054,-0.404m-8.662,-1.012l-0.075,0.029l-7.154,26.625l4.866,0c0.159,-0.121 3.221,-11.317 3.254,-11.446c0.013,0.121 1.413,0.221 1.413,0.221c10.887,0.837 16.104,-3.796 17.346,-8.413c0.604,-2.2 0.341,-4.041 -0.763,-5.471c-1.579,-2.045 -4.754,-3.083 -9.433,-3.083c-3.55,0 -6.988,0.558 -9.454,1.538" style="fill:#787f84;fill-rule:nonzero;"/><path d="M86.932,244.211c-1.405,-1.821 -1.484,-4.938 -0.242,-9.538c1.417,-5.237 4.496,-11.487 11.117,-11.487c2.037,0 3.533,0.604 4.462,1.804c1.783,2.313 1.163,6.483 0.333,9.588c-2.083,7.704 -5.695,11.454 -11.062,11.454c-2.125,0 -3.675,-0.617 -4.608,-1.821m-5.463,-9.517c-1.304,4.821 -0.979,8.675 0.929,11.154c1.671,2.155 4.5,3.246 8.417,3.246c8.312,0 14.487,-5.208 16.946,-14.3c1.291,-4.808 0.962,-8.658 -0.959,-11.146c-1.658,-2.158 -4.466,-3.25 -8.341,-3.258c-8.346,0 -14.542,5.217 -16.992,14.304" style="fill:#787f84;fill-rule:nonzero;"/><path d="M135.798,220.875l-3.3,12.079l-13.354,0l3.429,-12.079l-4.975,0c-0.162,0.129 -7.591,27.708 -7.591,27.708l4.962,0c0.163,-0.121 3.679,-12.962 3.679,-12.962l13.354,0l-3.67,12.962l4.962,0c0.171,-0.121 7.604,-27.708 7.604,-27.708l-4.966,0l-0.134,0Z" style="fill:#787f84;fill-rule:nonzero;"/><path d="M158.548,224.387l1.296,13.608l-10.525,0l9.229,-13.608Zm-1.266,-3.513l-19.655,27.713l4.525,0c0.138,-0.075 5.859,-8.13 5.859,-8.13l12.187,0c-0.008,0 -0.016,-0.075 -0.016,0c0.029,1 1.02,8.13 1.02,8.13l5.13,0c0.166,-0.196 -4.509,-27.713 -4.509,-27.713l-4.458,0l-0.083,0Z" style="fill:#787f84;fill-rule:nonzero;"/><path d="M192.095,248.585l4.338,0c0.162,-0.121 7.6,-27.708 7.6,-27.708l-4.183,0l-0.134,0l-5.225,19.266c0,0 -0.604,2.788 -0.646,2.971l-10.504,-22.237l-5.212,0c-0.167,0.125 -7.604,27.708 -7.604,27.708l4.187,0c0.163,-0.121 5.571,-20.037 5.571,-20.037c0,0 0.704,-3.171 0.746,-3.338l11.066,23.375Z" style="fill:#787f84;fill-rule:nonzero;"/><path d="M205.606,234.498c-1.191,4.384 -0.779,8.054 1.196,10.596c2.013,2.617 5.538,4 10.179,4c4.688,0 7.213,-0.612 9.559,-1.529c0.108,-0.113 3.975,-14.567 3.975,-14.567l-10.93,0c-0.158,0.129 -0.791,2.45 -0.791,2.45l6.275,0c-0.229,0.017 -2.954,10.225 -2.954,10.225c-0.963,0.304 -2.505,0.513 -4.496,0.513c-2.638,0 -4.709,-0.871 -5.975,-2.525c-1.55,-2 -1.834,-5.029 -0.834,-8.75c2.042,-7.567 6.763,-11.563 13.646,-11.563c3.504,0 5.321,0.684 6.092,1.096c0.208,-0.037 2.229,-2.317 2.229,-2.317c-1.233,-0.933 -3.604,-1.737 -8.15,-1.737c-7.579,0 -16.396,4.367 -19.021,14.108" style="fill:#787f84;fill-rule:nonzero;"/><path d="M274.678,220.875l-5.342,19.704c-0.983,3.658 -4.783,5.329 -7.883,5.329c-1.996,0 -3.625,-0.637 -4.492,-1.75c-0.696,-0.904 -0.871,-2.108 -0.5,-3.475l5.3,-19.808l-4.966,0c-0.163,0.129 -5.48,19.746 -5.48,19.746c-0.562,2.071 -0.258,3.95 0.896,5.429c1.538,1.992 4.446,3.083 8.209,3.083c6.691,0 12.287,-3.458 13.629,-8.412l5.312,-19.846l-4.554,0l-0.129,0Z" style="fill:#787f84;fill-rule:nonzero;"/><path d="M307.488,220.875l-5.225,19.267c0,0 -0.608,2.787 -0.645,2.97c-0.03,-0.487 -1.046,-2.875 -1.046,-2.875l-9.454,-19.362l-5.226,0c-0.162,0.129 -7.595,27.708 -7.595,27.708l4.183,0c0.158,-0.121 5.567,-20.033 5.567,-20.033c0,0 0.716,-3.171 0.75,-3.342c0.033,0.5 1.204,3.284 1.204,3.284l9.871,20.091l4.337,0c0.159,-0.121 7.6,-27.708 7.6,-27.708l-4.187,0l-0.134,0Z" style="fill:#787f84;fill-rule:nonzero;"/><path d="M318.767,220.875l-7.466,27.708l4.962,0c0.163,-0.121 7.604,-27.708 7.604,-27.708l-4.975,0l-0.125,0Z" style="fill:#787f84;fill-rule:nonzero;"/><path d="M348.982,220.875l-12.021,19.383c0,0.009 -2.021,3.521 -2.062,3.588c0.204,-0.071 0.137,-3.496 0.137,-3.496c0,-0.004 -1.4,-19.475 -1.4,-19.475l-5.296,0c-0.162,0.192 3.05,27.708 3.05,27.708l4.35,0c0.142,-0.071 18.021,-27.708 18.021,-27.708l-4.687,0l-0.092,0Z" style="fill:#787f84;fill-rule:nonzero;"/><path d="M358.178,220.875l-7.471,27.708l16.829,0c0.163,-0.121 0.829,-2.604 0.829,-2.604l-12.016,0l3,-10.358l10.491,0c0.167,-0.125 0.83,-2.625 0.83,-2.625l-10.817,0l2.758,-9.438l11.692,0c0.162,-0.129 0.825,-2.683 0.825,-2.683l-16.821,0l-0.129,0Z" style="fill:#787f84;fill-rule:nonzero;"/><path d="M384.126,223.373c0.921,-0.27 2.329,-0.475 4.067,-0.475c2.821,0 4.621,0.563 5.504,1.709c0.746,0.962 0.85,2.346 0.342,4.237c-1.071,3.988 -4.592,6.088 -10.179,6.088c0,0 -2.467,-0.188 -2.788,-0.217c0.104,-0.387 3.054,-11.342 3.054,-11.342m-4.637,-1.483l-0.071,0.029l-7.171,26.667l4.921,0c0.158,-0.125 3.612,-12.8 3.625,-12.858c0.012,0.37 8.129,12.858 8.129,12.858l5.579,0c0.138,-0.271 -8.337,-12.292 -8.337,-12.292c6.716,0.1 11.746,-2.846 13,-7.512c0.587,-2.167 0.346,-3.959 -0.721,-5.338c-1.554,-2.025 -4.775,-3.054 -9.563,-3.054c-3.433,0 -6.945,0.563 -9.391,1.5" style="fill:#787f84;fill-rule:nonzero;"/><path d="M403.379,228.248c-0.929,3.45 1.008,5.992 5.746,7.579c4.033,1.334 5.362,2.755 4.733,5.075c-0.825,3.067 -3.954,5.042 -7.967,5.042c-2.333,0 -4.291,-0.421 -5.837,-1.258c-0.221,0.05 -2.163,2.608 -2.163,2.608c1.942,1.329 4.421,1.8 8.088,1.8c6.466,0 11.908,-3.404 13.225,-8.292c0.637,-2.358 0.687,-5.758 -6.171,-7.979c-3.3,-1.104 -5.208,-2.291 -4.521,-4.837c0.8,-2.954 3.454,-4.725 7.104,-4.725c2.584,0 4.4,0.796 5.254,1.258c0.217,-0.042 2,-2.362 2,-2.362c-1.608,-1.225 -4.112,-1.767 -7.104,-1.767c-5.95,0 -11.154,3.312 -12.387,7.858" style="fill:#787f84;fill-rule:nonzero;"/><path d="M430.301,220.875l-7.475,27.708l4.971,0c0.163,-0.121 7.604,-27.708 7.604,-27.708l-4.971,0l-0.129,0Z" style="fill:#787f84;fill-rule:nonzero;"/><path d="M439.105,220.875l-0.709,2.662l7.317,0c-0.225,0.009 -6.925,25.046 -6.925,25.046l4.967,0c0.166,-0.121 6.933,-25.046 6.933,-25.046l6.992,0c0.162,-0.129 0.829,-2.662 0.829,-2.662l-19.275,0l-0.129,0Z" style="fill:#787f84;fill-rule:nonzero;"/><path d="M481.087,220.875c0,0 -10.825,12.425 -10.83,12.433c0.005,-0.008 0.005,-0.008 0.005,-0.02c-0.009,-0.563 -3.6,-12.413 -3.6,-12.413l-5.338,0c-0.162,0.229 5.458,15.492 5.458,15.492c-0.004,-0.109 -3.291,12.216 -3.291,12.216l4.962,0c0.167,-0.12 3.463,-12.225 3.463,-12.225c0.012,0.009 13.971,-15.483 13.971,-15.483l-4.721,0l-0.079,0Z" style="fill:#787f84;fill-rule:nonzero;"/><path d="M515.136,223.184c2.033,0 3.537,0.604 4.462,1.8c1.788,2.321 1.163,6.488 0.329,9.596c-2.079,7.7 -5.695,11.45 -11.054,11.45c-2.133,0 -3.679,-0.617 -4.616,-1.821c-1.4,-1.817 -1.475,-4.933 -0.238,-9.537c1.417,-5.238 4.496,-11.488 11.117,-11.488m0.65,-2.792c-8.342,0 -14.538,5.217 -16.992,14.3c-1.296,4.821 -0.983,8.675 0.933,11.142c1.663,2.163 4.496,3.258 8.417,3.258c8.317,0 14.484,-5.208 16.942,-14.295c1.296,-4.809 0.966,-8.667 -0.954,-11.155c-1.663,-2.158 -4.471,-3.25 -8.346,-3.25" style="fill:#787f84;fill-rule:nonzero;"/><path d="M533.498,220.875l-7.467,27.708l4.966,0l3.68,-12.962l10.437,0c0.163,-0.125 0.825,-2.625 0.825,-2.625l-10.767,0l2.759,-9.438l11.637,0c0.163,-0.129 0.834,-2.683 0.834,-2.683l-16.775,0l-0.129,0Z" style="fill:#787f84;fill-rule:nonzero;"/><path d="M567.128,228.248c-0.933,3.45 1.004,5.992 5.75,7.579c4.025,1.334 5.354,2.755 4.717,5.075c-0.821,3.067 -3.946,5.042 -7.963,5.042c-2.329,0 -4.292,-0.421 -5.837,-1.258c-0.217,0.05 -2.159,2.608 -2.159,2.608c1.946,1.329 4.421,1.8 8.084,1.8c6.475,0 11.912,-3.404 13.229,-8.292c0.641,-2.358 0.691,-5.745 -6.163,-7.979c-3.308,-1.104 -5.216,-2.291 -4.537,-4.837c0.808,-2.954 3.458,-4.725 7.108,-4.725c2.588,0 4.404,0.796 5.263,1.258c0.216,-0.042 1.987,-2.362 1.987,-2.362c-1.6,-1.225 -4.1,-1.767 -7.1,-1.767c-5.946,0 -11.154,3.312 -12.379,7.858" style="fill:#787f84;fill-rule:nonzero;"/><path d="M586.877,234.693c-1.184,4.38 -0.717,8.234 1.295,10.85c1.796,2.321 4.742,3.55 8.521,3.55c2.863,0 5.609,-0.558 7.542,-1.537c0.079,-0.196 -0.542,-2.521 -0.542,-2.521c-1.504,0.413 -3.112,0.95 -5.479,0.95c-2.404,0 -4.183,-0.737 -5.296,-2.175c-1.491,-1.933 -1.745,-5.137 -0.7,-9.017c1.942,-7.17 6.521,-11.445 12.259,-11.445c1.787,0 3.35,0.354 4.637,1.054c0.221,-0.038 1.946,-2.204 1.946,-2.204c-1.596,-1.28 -3.846,-1.809 -6.721,-1.809c-8.012,0 -15.187,5.888 -17.462,14.304" style="fill:#787f84;fill-rule:nonzero;"/><path d="M616.023,220.875l-7.467,27.708l4.967,0c0.162,-0.121 7.6,-27.708 7.6,-27.708l-4.971,0l-0.129,0Z" style="fill:#787f84;fill-rule:nonzero;"/><path d="M628.48,220.875l-7.466,27.708l16.821,0c0.162,-0.121 0.837,-2.604 0.837,-2.604l-12.012,0c0.229,-0.021 3.004,-10.358 3.004,-10.358l10.491,0c0.163,-0.125 0.817,-2.625 0.817,-2.625l-10.817,0c0.234,-0.013 2.759,-9.438 2.759,-9.438l11.696,0c0.158,-0.129 0.825,-2.683 0.825,-2.683l-16.821,0l-0.134,0Z" style="fill:#787f84;fill-rule:nonzero;"/><path d="M655.958,220.875l-5.221,0c-0.166,0.129 -7.595,27.708 -7.595,27.708l4.187,0c0.159,-0.121 5.563,-20.033 5.563,-20.033c0,0 0.712,-3.171 0.75,-3.342l11.071,23.375l4.333,0c0.167,-0.121 7.604,-27.708 7.604,-27.708l-4.188,0l-0.133,0l-5.871,22.237l-10.5,-22.237Z" style="fill:#787f84;fill-rule:nonzero;"/><path d="M677.803,234.693c-1.183,4.38 -0.721,8.234 1.3,10.85c1.796,2.321 4.733,3.55 8.517,3.55c2.858,0 5.608,-0.558 7.533,-1.537c0.092,-0.196 -0.538,-2.521 -0.538,-2.521c-1.504,0.413 -3.112,0.95 -5.475,0.95c-2.4,0 -4.179,-0.737 -5.3,-2.175c-1.495,-1.933 -1.741,-5.137 -0.691,-9.017c1.941,-7.17 6.521,-11.445 12.254,-11.445c1.787,0 3.35,0.354 4.642,1.054c0.216,-0.038 1.941,-2.204 1.941,-2.204c-1.596,-1.28 -3.846,-1.809 -6.725,-1.809c-8.004,0 -15.187,5.888 -17.458,14.304" style="fill:#787f84;fill-rule:nonzero;"/><path d="M708.571,220.875l-7.467,27.708l16.821,0l0.837,-2.604l-12.02,0l3.008,-10.358l10.492,0c0.162,-0.125 0.816,-2.625 0.816,-2.625l-10.808,0l2.754,-9.438l11.688,0c0.162,-0.129 0.829,-2.683 0.829,-2.683l-16.817,0l-0.133,0Z" style="fill:#787f84;fill-rule:nonzero;"/><path d="M757.553,224.387l1.3,13.608l-10.525,0l9.225,-13.608Zm-1.266,-3.513l-19.655,27.713l4.534,0c0.133,-0.075 5.862,-8.13 5.862,-8.13l12.179,0c-0.004,0 -0.012,-0.075 -0.012,0c0.021,1 1.012,8.13 1.012,8.13l5.134,0c0.162,-0.196 -4.513,-27.713 -4.513,-27.713l-4.454,0l-0.087,0Z" style="fill:#787f84;fill-rule:nonzero;"/><path d="M781.384,220.875l-5.225,0c-0.167,0.129 -7.6,27.708 -7.6,27.708l4.183,0c0.163,-0.121 5.575,-20.033 5.575,-20.033c0,0 0.713,-3.179 0.746,-3.342l11.071,23.375l4.337,0c0.163,-0.121 7.596,-27.708 7.596,-27.708l-4.179,0l-0.138,0l-5.22,19.267c0,0 -0.605,2.787 -0.646,2.97l-10.5,-22.237Z" style="fill:#787f84;fill-rule:nonzero;"/><path d="M814.705,223.54c1.229,-0.279 2.537,-0.437 4.429,-0.437c3.012,0 5.133,0.783 6.329,2.325c1.421,1.842 1.583,4.854 0.471,8.95c-2.192,8.137 -6.221,11.767 -13.067,11.767c-1.687,0 -3.158,-0.171 -4.133,-0.475c0.096,-0.355 5.971,-22.13 5.971,-22.13m-4.605,-1.608l-0.079,0.025l-6.862,25.433c1.908,1.125 5.429,1.705 9.275,1.705c9.437,0 16.287,-5.317 18.791,-14.58c1.188,-4.408 0.834,-7.875 -1.062,-10.325c-1.942,-2.516 -5.404,-3.8 -10.3,-3.8c-3.629,0 -7.188,0.563 -9.763,1.542" style="fill:#787f84;fill-rule:nonzero;"/><path d="M855.482,220.875l-0.708,2.662l7.321,0c-0.23,0.009 -6.934,25.046 -6.934,25.046l4.967,0c0.167,-0.121 6.933,-25.046 6.933,-25.046l6.992,0c0.171,-0.129 0.837,-2.662 0.837,-2.662l-19.283,0l-0.125,0Z" style="fill:#787f84;fill-rule:nonzero;"/><path d="M880.615,220.875l-7.467,27.708l16.825,0c0.162,-0.121 0.842,-2.604 0.842,-2.604l-12.021,0c0.225,-0.021 3,-10.358 3,-10.358l10.491,0c0.163,-0.125 0.821,-2.625 0.821,-2.625l-10.812,0c0.229,-0.013 2.754,-9.438 2.754,-9.438l11.696,0c0.162,-0.129 0.825,-2.683 0.825,-2.683l-16.825,0l-0.129,0Z" style="fill:#787f84;fill-rule:nonzero;"/><path d="M897.609,234.693c-1.184,4.38 -0.717,8.234 1.3,10.85c1.796,2.321 4.741,3.55 8.516,3.55c2.863,0 5.609,-0.558 7.542,-1.537c0.083,-0.196 -0.542,-2.521 -0.542,-2.521c-1.5,0.413 -3.108,0.95 -5.479,0.95c-2.396,0 -4.175,-0.737 -5.296,-2.175c-1.491,-1.933 -1.745,-5.137 -0.7,-9.017c1.946,-7.17 6.525,-11.445 12.259,-11.445c1.787,0 3.35,0.354 4.641,1.054c0.217,-0.038 1.955,-2.204 1.955,-2.204c-1.605,-1.28 -3.85,-1.809 -6.734,-1.809c-8.008,0 -15.187,5.888 -17.462,14.304" style="fill:#787f84;fill-rule:nonzero;"/><path d="M946.297,220.875l-3.3,12.079l-13.359,0c0.229,-0.021 3.429,-12.079 3.429,-12.079l-4.975,0c-0.166,0.129 -7.595,27.708 -7.595,27.708l4.971,0c0.162,-0.121 3.674,-12.962 3.674,-12.962l13.359,0c-0.229,0.016 -3.675,12.962 -3.675,12.962l4.966,0c0.163,-0.121 7.605,-27.708 7.605,-27.708l-4.98,0l-0.12,0Z" style="fill:#787f84;fill-rule:nonzero;"/><path d="M980.165,220.875l-5.225,19.267c0,0 -0.612,2.787 -0.654,2.97c-0.025,-0.487 -1.046,-2.875 -1.046,-2.875l-9.454,-19.362l-5.217,0c-0.162,0.129 -7.6,27.708 -7.6,27.708l4.188,0c0.158,-0.121 5.566,-20.033 5.566,-20.033c0,0 0.709,-3.171 0.746,-3.342c0.029,0.5 1.2,3.284 1.2,3.284l9.875,20.091l4.338,0c0.154,-0.121 7.596,-27.708 7.596,-27.708l-4.188,0l-0.125,0Z" style="fill:#787f84;fill-rule:nonzero;"/><path d="M1002.6,223.184c2.038,0 3.542,0.604 4.459,1.8c1.791,2.321 1.171,6.488 0.333,9.596c-2.083,7.7 -5.696,11.45 -11.054,11.45c-2.129,0 -3.675,-0.617 -4.608,-1.821c-1.405,-1.817 -1.488,-4.933 -0.246,-9.537c1.421,-5.238 4.496,-11.488 11.116,-11.488m-16.333,11.508c-1.3,4.821 -0.983,8.675 0.921,11.142c1.667,2.163 4.504,3.258 8.421,3.258c8.308,0 14.487,-5.208 16.937,-14.295c1.296,-4.809 0.971,-8.663 -0.946,-11.15c-1.666,-2.155 -4.475,-3.255 -8.341,-3.255c-8.35,0 -14.542,5.217 -16.992,14.3" style="fill:#787f84;fill-rule:nonzero;"/><path d="M1022.09,220.875l-7.471,27.708l16.85,0c0.167,-0.121 0.838,-2.604 0.838,-2.604l-12.046,0c0.225,-0.008 6.933,-25.104 6.933,-25.104l-4.971,0l-0.133,0Z" style="fill:#787f84;fill-rule:nonzero;"/><path d="M1052.71,223.184c2.034,0 3.534,0.604 4.455,1.8c1.791,2.321 1.166,6.488 0.325,9.596c-2.071,7.7 -5.692,11.45 -11.046,11.45c-2.129,0 -3.679,-0.617 -4.613,-1.821c-1.4,-1.817 -1.483,-4.933 -0.233,-9.537c1.408,-5.238 4.483,-11.488 11.112,-11.488m-16.337,11.508c-1.304,4.821 -0.983,8.675 0.925,11.142c1.662,2.163 4.5,3.258 8.417,3.258c8.312,0 14.487,-5.208 16.937,-14.295c1.3,-4.809 0.975,-8.663 -0.946,-11.15c-1.666,-2.155 -4.479,-3.255 -8.35,-3.255c-8.341,0 -14.533,5.217 -16.983,14.3" style="fill:#787f84;fill-rule:nonzero;"/><path d="M1067.48,234.498c-1.188,4.384 -0.771,8.05 1.191,10.596c2.021,2.617 5.542,4 10.188,4c4.687,0 7.212,-0.612 9.558,-1.529c0.104,-0.113 3.975,-14.567 3.975,-14.567l-10.929,0c-0.167,0.129 -0.787,2.45 -0.787,2.45l6.27,0c-0.225,0.017 -2.954,10.225 -2.954,10.225c-0.958,0.304 -2.512,0.513 -4.5,0.513c-2.633,0 -4.7,-0.871 -5.975,-2.525c-1.546,-2 -1.829,-5.029 -0.829,-8.75c2.046,-7.567 6.763,-11.563 13.646,-11.563c3.504,0 5.321,0.684 6.087,1.096c0.205,-0.037 2.234,-2.317 2.234,-2.317c-1.229,-0.933 -3.609,-1.737 -8.15,-1.737c-7.575,0 -16.396,4.367 -19.025,14.108" style="fill:#787f84;fill-rule:nonzero;"/><path d="M1118.4,220.875c0,0 -10.821,12.425 -10.825,12.433c0.005,-0.008 0.005,-0.008 0.005,-0.02c-0.017,-0.559 -3.609,-12.413 -3.609,-12.413l-5.341,0c-0.151,0.229 5.47,15.492 5.47,15.492c-0.004,-0.109 -3.3,12.216 -3.3,12.216l4.975,0c0.159,-0.12 3.459,-12.225 3.459,-12.225c0.016,0.009 13.966,-15.483 13.966,-15.483l-4.716,0l-0.084,0Z" style="fill:#787f84;fill-rule:nonzero;"/><path d="M792.573,128.378l-29.312,0l-5.242,19.592l58.563,0c19.604,0 31.233,-13.812 35.316,-29.025c4.084,-15.212 -3.133,-27.55 -22.583,-27.55l-117.163,0l-20.658,77.013c-2.258,8.416 2.746,15.245 11.167,15.245l116.15,0l5.258,-19.587l-83.142,0c-1.358,0 -2.166,-1.092 -1.795,-2.45l13.57,-50.629l47.567,0c4.4,0 7,3.575 5.821,7.958c-1.179,4.392 -4.867,9.433 -13.517,9.433" style="fill:#c51064;fill-rule:nonzero;"/><path d="M908.3,113.431c0.379,-1.342 1.729,-2.425 3.087,-2.442l81.075,0l5.242,-19.596l-129.271,0l-20.504,76.367c-2.333,8.733 3.167,15.892 12.213,15.892l112.837,0l5.254,-19.584l-79.391,0c-2.259,0 -3.646,-1.795 -3.05,-3.979l12.508,-46.658Z" style="fill:#c51064;fill-rule:nonzero;"/><path d="M1102.1,91.395l-8.95,33.392l-45.383,0l8.941,-33.392l-45.796,0l-24.729,92.258l45.804,0l10.534,-39.275l45.383,0l-10.533,39.275l45.821,0l24.72,-92.258l-45.812,0Z" style="fill:#c51064;fill-rule:nonzero;"/><path d="M216.93,96.046c-3.966,-2.95 -9.812,-4.65 -17.941,-4.65l-115.704,0l-24.796,92.204l45.821,-0.012l19.533,-72.6l43.696,0c8.158,0 10.608,5.392 8.825,12.067c-1.788,6.662 -8.642,12.062 -15.304,12.062l-29.634,0l-5.246,19.592l55.834,0c20.066,0 35.462,-14.184 40.141,-31.667c3.075,-11.421 2.267,-21.446 -5.225,-26.996" style="fill:#c51064;fill-rule:nonzero;"/><path d="M338.126,119.231l-9.859,36.809c-1.212,4.533 -5.912,8.245 -10.441,8.245l-42.721,0c-4.538,0 -7.246,-3.712 -6.038,-8.245l9.859,-36.809c1.212,-4.533 5.912,-8.246 10.441,-8.246l42.725,0c6.209,0 7.25,3.713 6.034,8.246m28.55,-27.837l-101.371,0c-17.35,0 -27.375,9.625 -31.021,23.216l-11.842,44.546c-3.645,13.596 4.488,24.721 18.092,24.721l101.363,0c18.187,0 27.704,-11.125 31.354,-24.721l11.525,-43.041c3.637,-13.592 0,-24.721 -18.1,-24.721" style="fill:#c51064;fill-rule:nonzero;"/><path d="M701.222,91.395l-149.875,0l-5.242,19.592l52.963,0l-19.521,72.895l46.533,-0.008l19.517,-72.887l50.363,0l5.262,-19.592Z" style="fill:#c51064;fill-rule:nonzero;"/><path d="M394.892,118.945c-4.079,15.212 4.955,27.55 20.155,27.55l62.541,0c4.917,0 7.838,3.983 6.517,8.891c-1.317,4.921 -5.029,8.9 -11.279,8.9l-84.846,0l-5.254,19.588l111.075,0c20.625,0 31.904,-12.75 36.121,-28.488c4.212,-15.729 -0.134,-28.496 -20.859,-28.496l-62.546,0c-4.391,0 -7,-3.554 -5.808,-7.945l2.125,-7.959l92.95,0l5.246,-19.591l-138.758,0l-7.38,27.55Z" style="fill:#c51064;fill-rule:nonzero;"/><path d="M84.265,7.622l-7.817,0l4.504,38.055c0.1,0.75 0.417,1.345 0.946,1.762c0.525,0.417 1.354,0.629 2.471,0.629l5.404,0l26.587,-40.446l-7.933,0c0,0 -17.542,27.413 -20.896,32.684l-3.266,-32.684Z" style="fill:#f58345;fill-rule:nonzero;"/><path d="M115.209,39.631l0.767,-2.837c0.333,-1.242 0.916,-2.129 1.733,-2.642c0.825,-0.517 1.988,-0.779 3.446,-0.779c1.075,0 2.254,0.025 3.504,0.079c1.183,0.05 2.467,0.146 3.833,0.275l-2.412,8.933l-7.508,0c-0.446,0 -0.909,-0.045 -1.405,-0.133c-0.483,-0.087 -0.895,-0.237 -1.254,-0.462c-0.341,-0.209 -0.591,-0.517 -0.733,-0.913c-0.146,-0.396 -0.138,-0.908 0.029,-1.521m13.404,-21.458l-12.75,0l-0.596,2.204c-0.12,0.446 -0.175,0.85 -0.158,1.2c0.013,0.375 0.15,0.713 0.413,1.004c0.258,0.292 0.691,0.517 1.287,0.667c0.571,0.146 1.354,0.221 2.325,0.221l8.133,0c1.4,0 2.355,0.279 2.83,0.833c0.47,0.554 0.579,1.317 0.32,2.267l-0.445,1.654c-1.196,-0.138 -2.359,-0.229 -3.455,-0.283c-1.158,-0.055 -2.504,-0.1 -4,-0.134c-3.583,-0.071 -6.629,0.588 -9.075,1.954c-2.458,1.38 -4.129,3.655 -4.966,6.767l-0.884,3.283c-0.737,2.738 -0.229,4.825 1.513,6.205c1.721,1.358 4.425,2.05 8.029,2.05l15.063,0l5.775,-21.421c0.737,-2.729 0.366,-4.85 -1.096,-6.3c-1.454,-1.442 -4.234,-2.171 -8.263,-2.171" style="fill:#f58345;fill-rule:nonzero;"/><path d="M158.426,7.354l-7.571,0l-10.025,37.191c-0.354,1.321 -0.266,2.221 0.275,2.746c0.525,0.513 1.505,0.775 2.917,0.775l3.429,0l10.975,-40.712Z" style="fill:#f58345;fill-rule:nonzero;"/><path d="M190.716,18.171l-7.571,0l-6.6,24.488l-6.575,0c-1.025,0 -1.879,-0.071 -2.529,-0.209c-0.634,-0.137 -1.104,-0.408 -1.4,-0.804c-0.304,-0.404 -0.459,-0.966 -0.467,-1.662c-0.012,-0.717 0.142,-1.671 0.454,-2.834l5.117,-18.979l-7.508,0l-5.109,18.946c-0.55,2.058 -0.766,3.796 -0.633,5.163c0.137,1.391 0.637,2.533 1.496,3.4c0.854,0.858 2.062,1.479 3.591,1.841c1.517,0.363 3.405,0.546 5.613,0.546l14.062,0l8.059,-29.896Z" style="fill:#f58345;fill-rule:nonzero;"/><path d="M215.282,27.237l-0.608,2.25c-0.079,0.288 -0.229,0.517 -0.467,0.692c-0.233,0.175 -0.483,0.262 -0.733,0.262l-11.683,0l0.841,-3.129c0.367,-1.346 1.225,-2.442 2.559,-3.258c1.337,-0.817 2.971,-1.234 4.85,-1.234c2.116,0 3.629,0.413 4.496,1.217c0.862,0.804 1.108,1.854 0.745,3.2m5.471,-7.275c-1.021,-0.817 -2.346,-1.454 -3.933,-1.892c-1.575,-0.433 -3.392,-0.65 -5.4,-0.65c-1.842,0 -3.663,0.196 -5.417,0.592c-1.758,0.396 -3.396,1.038 -4.871,1.904c-1.466,0.867 -2.775,2 -3.879,3.371c-1.104,1.375 -1.925,3.042 -2.437,4.95l-2.7,10.013c-0.813,3.016 -0.325,5.433 1.454,7.187c1.762,1.746 4.554,2.629 8.292,2.629l9.566,0c1,0 1.829,-0.075 2.471,-0.221c0.642,-0.15 1.167,-0.362 1.558,-0.625c0.4,-0.262 0.7,-0.591 0.896,-0.979c0.184,-0.375 0.338,-0.783 0.459,-1.225l0.633,-2.358l-14.208,0c-1.284,0 -2.305,-0.375 -3.042,-1.117c-0.729,-0.737 -0.908,-1.812 -0.533,-3.204l0.67,-2.492l14.58,0c1.9,0 3.437,-0.445 4.57,-1.325c1.13,-0.879 1.88,-1.995 2.238,-3.316l1.05,-3.888c0.421,-1.566 0.45,-2.991 0.087,-4.233c-0.366,-1.242 -1.07,-2.292 -2.104,-3.121" style="fill:#f58345;fill-rule:nonzero;"/><path d="M257.185,18.881c1.046,-3.883 3.958,-5.854 8.65,-5.854l10.629,0c1.025,0 1.846,-0.079 2.513,-0.246c0.666,-0.166 1.216,-0.404 1.641,-0.696c0.429,-0.3 0.759,-0.662 0.975,-1.075c0.217,-0.4 0.388,-0.829 0.504,-1.266l0.571,-2.121l-15.641,0c-4.555,0 -8.392,0.937 -11.4,2.796c-3.017,1.858 -4.992,4.45 -5.871,7.7l-5.179,19.216c-0.43,1.596 -0.5,3.075 -0.2,4.396c0.3,1.334 0.912,2.479 1.829,3.409c0.912,0.929 2.108,1.654 3.55,2.162c1.437,0.508 3.125,0.763 5.008,0.763l12.821,0c1.987,0 3.387,-0.321 4.162,-0.959c0.767,-0.633 1.275,-1.391 1.509,-2.25l0.591,-2.196l-17.454,0c-0.933,0 -1.716,-0.158 -2.333,-0.466c-0.613,-0.309 -1.088,-0.725 -1.404,-1.238c-0.321,-0.512 -0.509,-1.121 -0.567,-1.816c-0.054,-0.7 0.017,-1.421 0.217,-2.155l4.879,-18.104Z" style="fill:#f58345;fill-rule:nonzero;"/><path d="M306.555,19.915l0.47,-1.742l-11.579,0c-3.391,0 -6.033,0.671 -7.846,1.996c-1.812,1.321 -3.066,3.242 -3.729,5.7l-5.033,18.679c-0.358,1.321 -0.267,2.217 0.271,2.746c0.525,0.513 1.504,0.771 2.916,0.771l3.438,0l5.962,-22.121c0.188,-0.696 0.488,-1.296 0.9,-1.775c0.396,-0.467 0.992,-0.7 1.771,-0.7l6.442,0c1.433,0 2.712,-0.25 3.796,-0.742c1.108,-0.5 1.854,-1.445 2.221,-2.812" style="fill:#f58345;fill-rule:nonzero;"/><path d="M328.464,27.237l-0.604,2.25c-0.079,0.288 -0.233,0.517 -0.467,0.692c-0.233,0.175 -0.483,0.262 -0.737,0.262l-11.684,0l0.846,-3.129c0.363,-1.346 1.221,-2.442 2.555,-3.258c1.341,-0.817 2.974,-1.234 4.849,-1.234c2.117,0 3.63,0.413 4.496,1.217c0.867,0.804 1.109,1.854 0.746,3.2m5.471,-7.275c-1.021,-0.817 -2.346,-1.454 -3.929,-1.892c-1.579,-0.433 -3.396,-0.65 -5.404,-0.65c-1.842,0 -3.663,0.196 -5.417,0.592c-1.754,0.396 -3.396,1.038 -4.867,1.904c-1.471,0.867 -2.775,2 -3.879,3.371c-1.104,1.375 -1.925,3.042 -2.442,4.95l-2.7,10.013c-0.812,3.016 -0.32,5.433 1.455,7.187c1.766,1.746 4.554,2.629 8.291,2.629l9.571,0c0.996,0 1.829,-0.075 2.471,-0.221c0.637,-0.15 1.163,-0.362 1.554,-0.625c0.4,-0.262 0.7,-0.591 0.896,-0.979c0.188,-0.375 0.338,-0.783 0.458,-1.225l0.634,-2.358l-14.209,0c-1.279,0 -2.304,-0.375 -3.041,-1.117c-0.725,-0.737 -0.905,-1.812 -0.534,-3.204l0.675,-2.492l14.575,0c1.904,0 3.442,-0.445 4.571,-1.325c1.133,-0.879 1.883,-1.995 2.242,-3.316l1.046,-3.888c0.42,-1.566 0.454,-2.991 0.087,-4.233c-0.362,-1.242 -1.071,-2.292 -2.104,-3.121" style="fill:#f58345;fill-rule:nonzero;"/><path d="M346.201,39.631l0.767,-2.837c0.333,-1.242 0.916,-2.129 1.733,-2.642c0.825,-0.517 1.987,-0.779 3.446,-0.779c1.075,0 2.254,0.025 3.504,0.079c1.179,0.05 2.467,0.146 3.829,0.275l-2.408,8.933l-7.509,0c-0.445,0 -0.908,-0.045 -1.404,-0.133c-0.483,-0.087 -0.896,-0.237 -1.254,-0.462c-0.346,-0.209 -0.592,-0.517 -0.733,-0.913c-0.146,-0.396 -0.138,-0.908 0.029,-1.521m13.404,-21.458l-12.75,0l-0.596,2.204c-0.121,0.446 -0.175,0.85 -0.158,1.2c0.012,0.375 0.15,0.713 0.412,1.004c0.255,0.292 0.688,0.517 1.284,0.667c0.575,0.146 1.358,0.221 2.329,0.221l8.129,0c1.404,0 2.354,0.279 2.833,0.833c0.471,0.554 0.58,1.317 0.321,2.267l-0.446,1.654c-1.195,-0.138 -2.358,-0.229 -3.454,-0.283c-1.158,-0.055 -2.504,-0.1 -4,-0.134c-3.566,-0.071 -6.629,0.588 -9.075,1.954c-2.458,1.38 -4.129,3.655 -4.966,6.767l-0.884,3.283c-0.737,2.738 -0.229,4.825 1.513,6.205c1.721,1.358 4.421,2.05 8.025,2.05l15.066,0l5.775,-21.421c0.738,-2.729 0.367,-4.85 -1.095,-6.3c-1.455,-1.442 -4.234,-2.171 -8.263,-2.171" style="fill:#f58345;fill-rule:nonzero;"/><path d="M373.927,39.648c-0.733,2.725 -0.567,4.829 0.496,6.254c1.067,1.437 3.379,2.166 6.875,2.166l3.746,0c1.783,0 3.096,-0.316 3.904,-0.933c0.808,-0.617 1.337,-1.362 1.567,-2.225l0.608,-2.25l-7.571,0c-0.908,0 -1.562,-0.217 -1.946,-0.646c-0.383,-0.425 -0.421,-1.212 -0.116,-2.341l4.37,-16.205l5.192,0c1.971,0 3.304,-0.283 4.071,-0.866c0.758,-0.575 1.262,-1.313 1.5,-2.204l0.6,-2.225l-9.938,0l2.013,-6.996l-7.571,0l-7.8,28.471Z" style="fill:#f58345;fill-rule:nonzero;"/><path d="M731.072,39.648c-0.733,2.725 -0.567,4.829 0.496,6.254c1.062,1.437 3.375,2.166 6.875,2.166l3.746,0c1.779,0 3.091,-0.316 3.904,-0.933c0.808,-0.617 1.333,-1.362 1.567,-2.225l0.608,-2.25l-7.571,0c-0.908,0 -1.562,-0.217 -1.946,-0.646c-0.383,-0.425 -0.421,-1.212 -0.116,-2.341l4.366,-16.205l5.192,0c1.975,0 3.308,-0.283 4.075,-0.866c0.758,-0.575 1.262,-1.313 1.5,-2.204l0.6,-2.225l-9.938,0l2.009,-6.996l-7.567,0l-7.8,28.471Z" style="fill:#f58345;fill-rule:nonzero;"/><path d="M410.485,14.375l2.871,0l2.025,-7.508l-7.825,0l-0.983,3.666c-0.338,1.234 -0.092,2.2 0.72,2.863c0.796,0.65 1.871,0.979 3.192,0.979" style="fill:#f58345;fill-rule:nonzero;"/><path d="M397.527,44.547c-0.354,1.316 -0.275,2.216 0.242,2.745c0.508,0.521 1.496,0.775 3.008,0.775l3.371,0l8.059,-29.895l-7.571,0l-7.109,26.375Z" style="fill:#f58345;fill-rule:nonzero;"/><path d="M441.141,18.688c-1.433,-0.346 -3.287,-0.517 -5.496,-0.517l-15.187,0l-7.108,26.375c-0.355,1.321 -0.267,2.217 0.27,2.746c0.53,0.521 1.525,0.775 3.042,0.775l3.308,0l6.63,-24.6l7.695,0c1.692,0 2.788,0.292 3.259,0.863c0.471,0.57 0.483,1.704 0.033,3.37l-4.542,16.846c-0.354,1.321 -0.266,2.221 0.275,2.746c0.521,0.513 1.5,0.775 2.913,0.775l3.433,0l5.471,-20.296c0.454,-1.696 0.65,-3.171 0.579,-4.375c-0.075,-1.233 -0.496,-2.25 -1.25,-3.025c-0.75,-0.771 -1.871,-1.337 -3.325,-1.683" style="fill:#f58345;fill-rule:nonzero;"/><path d="M461.964,24.749c1.058,-0.85 2.479,-1.279 4.225,-1.279l7.054,0l-5.175,19.187l-7.133,0c-0.533,0 -1.092,-0.058 -1.667,-0.183c-0.562,-0.117 -1.062,-0.334 -1.475,-0.642c-0.412,-0.304 -0.696,-0.729 -0.862,-1.292c-0.167,-0.562 -0.125,-1.304 0.116,-2.208l2.809,-10.412c0.337,-1.255 1.046,-2.317 2.108,-3.171m-4.254,-4.163c-2.721,1.613 -4.538,4.042 -5.392,7.221l-2.833,10.496c-0.862,3.2 -0.379,5.65 1.429,7.3c1.796,1.633 4.704,2.462 8.642,2.462l7.058,0l-0.771,2.859c-0.241,0.891 -0.712,1.616 -1.4,2.162c-0.679,0.546 -1.62,0.821 -2.787,0.821l-9.129,0c-1.484,0 -2.654,0.238 -3.484,0.704c-0.841,0.467 -1.416,1.254 -1.708,2.342l-0.637,2.358l13.766,0c2.05,0 3.842,-0.237 5.334,-0.704c1.491,-0.471 2.762,-1.104 3.77,-1.883c1.013,-0.779 1.83,-1.671 2.43,-2.65c0.595,-0.971 1.033,-1.963 1.3,-2.942l8.883,-32.962l-14.646,0c-3.804,0 -7.108,0.812 -9.825,2.416" style="fill:#f58345;fill-rule:nonzero;"/><path d="M544.614,7.622l-7.634,0l-9.445,35.038l-12.075,0c-1.15,0 -2.1,-0.088 -2.825,-0.263c-0.709,-0.17 -1.242,-0.462 -1.584,-0.866c-0.337,-0.4 -0.521,-0.95 -0.533,-1.629c-0.017,-0.696 0.125,-1.588 0.408,-2.65l7.992,-29.63l-7.638,0l-7.966,29.55c-0.584,2.163 -0.779,3.963 -0.588,5.355c0.196,1.412 0.767,2.545 1.696,3.375c0.925,0.82 2.217,1.391 3.846,1.704c1.617,0.304 3.571,0.462 5.817,0.462l19.625,0l10.904,-40.446Z" style="fill:#f58345;fill-rule:nonzero;"/><path d="M570.955,18.688c-1.438,-0.346 -3.288,-0.517 -5.496,-0.517l-15.188,0l-7.108,26.375c-0.358,1.321 -0.271,2.217 0.271,2.746c0.529,0.521 1.525,0.775 3.041,0.775l3.305,0l6.633,-24.6l7.696,0c1.691,0 2.787,0.292 3.258,0.863c0.471,0.57 0.479,1.704 0.029,3.37l-4.537,16.846c-0.354,1.321 -0.267,2.221 0.275,2.746c0.521,0.513 1.5,0.775 2.912,0.775l3.434,0l5.466,-20.296c0.459,-1.696 0.654,-3.171 0.584,-4.375c-0.075,-1.233 -0.496,-2.25 -1.255,-3.025c-0.75,-0.771 -1.866,-1.337 -3.32,-1.683" style="fill:#f58345;fill-rule:nonzero;"/><path d="M587.534,10.532c-0.334,1.233 -0.088,2.2 0.725,2.862c0.796,0.65 1.866,0.979 3.191,0.979l2.871,0l2.021,-7.504l-7.821,0l-0.987,3.663Z" style="fill:#f58345;fill-rule:nonzero;"/><path d="M578.49,44.547c-0.354,1.316 -0.275,2.216 0.242,2.745c0.508,0.521 1.496,0.775 3.008,0.775l3.371,0l8.059,-29.895l-7.571,0l-7.109,26.375Z" style="fill:#f58345;fill-rule:nonzero;"/><path d="M621.958,18.171l-15.817,22.463l-0.904,-22.463l-7.317,0l1.392,27.129c0.062,0.963 0.358,1.675 0.87,2.113c0.509,0.433 1.359,0.654 2.517,0.654l4.9,0l21.538,-29.896l-7.18,0Z" style="fill:#f58345;fill-rule:nonzero;"/><path d="M649.255,27.237l-0.609,2.25c-0.079,0.288 -0.229,0.517 -0.466,0.692c-0.234,0.175 -0.484,0.262 -0.734,0.262l-11.683,0l0.842,-3.129c0.362,-1.346 1.225,-2.442 2.558,-3.258c1.337,-0.817 2.971,-1.234 4.85,-1.234c2.117,0 3.629,0.413 4.496,1.217c0.862,0.804 1.108,1.854 0.746,3.2m5.47,-7.275c-1.02,-0.817 -2.345,-1.454 -3.933,-1.892c-1.575,-0.433 -3.392,-0.65 -5.4,-0.65c-1.842,0 -3.662,0.196 -5.417,0.592c-1.758,0.396 -3.395,1.038 -4.87,1.904c-1.467,0.867 -2.775,2 -3.88,3.371c-1.104,1.375 -1.925,3.042 -2.437,4.95l-2.7,10.013c-0.813,3.016 -0.325,5.433 1.454,7.187c1.763,1.746 4.554,2.629 8.292,2.629l9.566,0c1,0 1.83,-0.075 2.471,-0.221c0.642,-0.15 1.167,-0.362 1.559,-0.625c0.4,-0.262 0.7,-0.591 0.895,-0.979c0.184,-0.375 0.338,-0.783 0.459,-1.225l0.633,-2.358l-14.208,0c-1.284,0 -2.304,-0.375 -3.042,-1.117c-0.729,-0.737 -0.908,-1.812 -0.533,-3.204l0.671,-2.492l14.579,0c1.9,0 3.437,-0.445 4.571,-1.325c1.129,-0.879 1.879,-1.995 2.237,-3.316l1.05,-3.888c0.421,-1.566 0.45,-2.991 0.088,-4.233c-0.367,-1.242 -1.071,-2.292 -2.105,-3.121" style="fill:#f58345;fill-rule:nonzero;"/><path d="M686.563,19.915l0.467,-1.742l-11.579,0c-3.392,0 -6.034,0.671 -7.846,1.996c-1.808,1.321 -3.067,3.242 -3.725,5.7l-5.038,18.679c-0.354,1.321 -0.266,2.217 0.275,2.746c0.525,0.513 1.505,0.771 2.917,0.771l3.433,0l5.963,-22.121c0.188,-0.696 0.492,-1.296 0.9,-1.775c0.396,-0.467 0.992,-0.7 1.771,-0.7l6.446,0c1.433,0 2.712,-0.25 3.796,-0.742c1.104,-0.5 1.854,-1.445 2.22,-2.812" style="fill:#f58345;fill-rule:nonzero;"/><path d="M695.68,18.934c-1.583,0.504 -2.971,1.154 -4.117,1.929c-1.162,0.779 -2.104,1.671 -2.808,2.646c-0.708,0.979 -1.192,1.954 -1.446,2.896c-0.591,2.192 -0.337,3.95 0.754,5.217c1.075,1.254 2.934,2.312 5.521,3.141l5.083,1.563c0.963,0.271 1.584,0.666 1.855,1.183c0.27,0.513 0.304,1.154 0.104,1.9c-0.296,1.092 -0.954,1.913 -1.954,2.442c-1.017,0.537 -2.234,0.808 -3.617,0.808l-7.571,0c-2.9,0 -4.658,1.083 -5.237,3.208l-0.588,2.2l12.017,0c3.762,0 6.966,-0.75 9.521,-2.229c2.566,-1.487 4.241,-3.616 4.975,-6.333c0.529,-1.963 0.375,-3.667 -0.463,-5.058c-0.837,-1.392 -2.667,-2.5 -5.442,-3.3l-5.32,-1.617c-1,-0.271 -1.646,-0.688 -1.925,-1.238c-0.284,-0.566 -0.338,-1.154 -0.159,-1.812c0.209,-0.792 0.717,-1.496 1.504,-2.1c0.784,-0.604 1.938,-0.913 3.438,-0.913l6.5,0c1.608,0 2.846,-0.22 3.692,-0.662c0.858,-0.45 1.441,-1.221 1.733,-2.3l0.629,-2.333l-11.208,0c-2.046,0 -3.888,0.254 -5.471,0.762" style="fill:#f58345;fill-rule:nonzero;"/><path d="M722.104,10.532c-0.333,1.233 -0.087,2.2 0.725,2.862c0.792,0.65 1.867,0.979 3.188,0.979l2.875,0l2.02,-7.504l-7.82,0l-0.988,3.663Z" style="fill:#f58345;fill-rule:nonzero;"/><path d="M713.061,44.547c-0.354,1.316 -0.275,2.216 0.241,2.745c0.509,0.521 1.496,0.775 3.009,0.775l3.371,0l8.058,-29.895l-7.571,0l-7.108,26.375Z" style="fill:#f58345;fill-rule:nonzero;"/><path d="M780.295,18.171l-12.846,20.796l-3.875,-20.796l-7.317,0l5.246,28.925l-5.658,8.696c-0.837,1.321 -1.087,2.221 -0.767,2.746c0.317,0.521 1.213,0.775 2.73,0.775l3.37,0l8.355,-12.917l17.941,-28.225l-7.179,0Z" style="fill:#f58345;fill-rule:nonzero;"/><path d="M67.976,222.942c2.9,0 4.75,0.575 5.659,1.75c0.733,0.954 0.85,2.3 0.358,4.113c-1.2,4.466 -5.175,6.47 -11.8,5.966c0,0 -1.513,-0.116 -1.529,-0.116c0.212,-0.017 3.254,-11.284 3.258,-11.309c0.013,0.1 4.054,-0.404 4.054,-0.404m-8.662,-1.012l-0.075,0.029l-7.154,26.625l4.866,0c0.159,-0.121 3.221,-11.317 3.254,-11.446c0.013,0.121 1.413,0.221 1.413,0.221c10.887,0.837 16.104,-3.796 17.346,-8.413c0.604,-2.2 0.341,-4.041 -0.763,-5.471c-1.579,-2.045 -4.754,-3.083 -9.433,-3.083c-3.55,0 -6.988,0.558 -9.454,1.538" style="fill:#787f84;fill-rule:nonzero;"/><path d="M86.932,244.211c-1.405,-1.821 -1.484,-4.938 -0.242,-9.538c1.417,-5.237 4.496,-11.487 11.117,-11.487c2.037,0 3.533,0.604 4.462,1.804c1.783,2.313 1.163,6.483 0.333,9.588c-2.083,7.704 -5.695,11.454 -11.062,11.454c-2.125,0 -3.675,-0.617 -4.608,-1.821m-5.463,-9.517c-1.304,4.821 -0.979,8.675 0.929,11.154c1.671,2.155 4.5,3.246 8.417,3.246c8.312,0 14.487,-5.208 16.946,-14.3c1.291,-4.808 0.962,-8.658 -0.959,-11.146c-1.658,-2.158 -4.466,-3.25 -8.341,-3.258c-8.346,0 -14.542,5.217 -16.992,14.304" style="fill:#787f84;fill-rule:nonzero;"/><path d="M135.798,220.875l-3.3,12.079l-13.354,0l3.429,-12.079l-4.975,0c-0.162,0.129 -7.591,27.708 -7.591,27.708l4.962,0c0.163,-0.121 3.679,-12.962 3.679,-12.962l13.354,0l-3.67,12.962l4.962,0c0.171,-0.121 7.604,-27.708 7.604,-27.708l-4.966,0l-0.134,0Z" style="fill:#787f84;fill-rule:nonzero;"/><path d="M158.548,224.387l1.296,13.608l-10.525,0l9.229,-13.608Zm-1.266,-3.513l-19.655,27.713l4.525,0c0.138,-0.075 5.859,-8.13 5.859,-8.13l12.187,0c-0.008,0 -0.016,-0.075 -0.016,0c0.029,1 1.02,8.13 1.02,8.13l5.13,0c0.166,-0.196 -4.509,-27.713 -4.509,-27.713l-4.458,0l-0.083,0Z" style="fill:#787f84;fill-rule:nonzero;"/><path d="M192.095,248.585l4.338,0c0.162,-0.121 7.6,-27.708 7.6,-27.708l-4.183,0l-0.134,0l-5.225,19.266c0,0 -0.604,2.788 -0.646,2.971l-10.504,-22.237l-5.212,0c-0.167,0.125 -7.604,27.708 -7.604,27.708l4.187,0c0.163,-0.121 5.571,-20.037 5.571,-20.037c0,0 0.704,-3.171 0.746,-3.338l11.066,23.375Z" style="fill:#787f84;fill-rule:nonzero;"/><path d="M205.606,234.498c-1.191,4.384 -0.779,8.054 1.196,10.596c2.013,2.617 5.538,4 10.179,4c4.688,0 7.213,-0.612 9.559,-1.529c0.108,-0.113 3.975,-14.567 3.975,-14.567l-10.93,0c-0.158,0.129 -0.791,2.45 -0.791,2.45l6.275,0c-0.229,0.017 -2.954,10.225 -2.954,10.225c-0.963,0.304 -2.505,0.513 -4.496,0.513c-2.638,0 -4.709,-0.871 -5.975,-2.525c-1.55,-2 -1.834,-5.029 -0.834,-8.75c2.042,-7.567 6.763,-11.563 13.646,-11.563c3.504,0 5.321,0.684 6.092,1.096c0.208,-0.037 2.229,-2.317 2.229,-2.317c-1.233,-0.933 -3.604,-1.737 -8.15,-1.737c-7.579,0 -16.396,4.367 -19.021,14.108" style="fill:#787f84;fill-rule:nonzero;"/><path d="M274.678,220.875l-5.342,19.704c-0.983,3.658 -4.783,5.329 -7.883,5.329c-1.996,0 -3.625,-0.637 -4.492,-1.75c-0.696,-0.904 -0.871,-2.108 -0.5,-3.475l5.3,-19.808l-4.966,0c-0.163,0.129 -5.48,19.746 -5.48,19.746c-0.562,2.071 -0.258,3.95 0.896,5.429c1.538,1.992 4.446,3.083 8.209,3.083c6.691,0 12.287,-3.458 13.629,-8.412l5.312,-19.846l-4.554,0l-0.129,0Z" style="fill:#787f84;fill-rule:nonzero;"/><path d="M307.488,220.875l-5.225,19.267c0,0 -0.608,2.787 -0.645,2.97c-0.03,-0.487 -1.046,-2.875 -1.046,-2.875l-9.454,-19.362l-5.226,0c-0.162,0.129 -7.595,27.708 -7.595,27.708l4.183,0c0.158,-0.121 5.567,-20.033 5.567,-20.033c0,0 0.716,-3.171 0.75,-3.342c0.033,0.5 1.204,3.284 1.204,3.284l9.871,20.091l4.337,0c0.159,-0.121 7.6,-27.708 7.6,-27.708l-4.187,0l-0.134,0Z" style="fill:#787f84;fill-rule:nonzero;"/><path d="M318.767,220.875l-7.466,27.708l4.962,0c0.163,-0.121 7.604,-27.708 7.604,-27.708l-4.975,0l-0.125,0Z" style="fill:#787f84;fill-rule:nonzero;"/><path d="M348.982,220.875l-12.021,19.383c0,0.009 -2.021,3.521 -2.062,3.588c0.204,-0.071 0.137,-3.496 0.137,-3.496c0,-0.004 -1.4,-19.475 -1.4,-19.475l-5.296,0c-0.162,0.192 3.05,27.708 3.05,27.708l4.35,0c0.142,-0.071 18.021,-27.708 18.021,-27.708l-4.687,0l-0.092,0Z" style="fill:#787f84;fill-rule:nonzero;"/><path d="M358.178,220.875l-7.471,27.708l16.829,0c0.163,-0.121 0.829,-2.604 0.829,-2.604l-12.016,0l3,-10.358l10.491,0c0.167,-0.125 0.83,-2.625 0.83,-2.625l-10.817,0l2.758,-9.438l11.692,0c0.162,-0.129 0.825,-2.683 0.825,-2.683l-16.821,0l-0.129,0Z" style="fill:#787f84;fill-rule:nonzero;"/><path d="M384.126,223.373c0.921,-0.27 2.329,-0.475 4.067,-0.475c2.821,0 4.621,0.563 5.504,1.709c0.746,0.962 0.85,2.346 0.342,4.237c-1.071,3.988 -4.592,6.088 -10.179,6.088c0,0 -2.467,-0.188 -2.788,-0.217c0.104,-0.387 3.054,-11.342 3.054,-11.342m-4.637,-1.483l-0.071,0.029l-7.171,26.667l4.921,0c0.158,-0.125 3.612,-12.8 3.625,-12.858c0.012,0.37 8.129,12.858 8.129,12.858l5.579,0c0.138,-0.271 -8.337,-12.292 -8.337,-12.292c6.716,0.1 11.746,-2.846 13,-7.512c0.587,-2.167 0.346,-3.959 -0.721,-5.338c-1.554,-2.025 -4.775,-3.054 -9.563,-3.054c-3.433,0 -6.945,0.563 -9.391,1.5" style="fill:#787f84;fill-rule:nonzero;"/><path d="M403.379,228.248c-0.929,3.45 1.008,5.992 5.746,7.579c4.033,1.334 5.362,2.755 4.733,5.075c-0.825,3.067 -3.954,5.042 -7.967,5.042c-2.333,0 -4.291,-0.421 -5.837,-1.258c-0.221,0.05 -2.163,2.608 -2.163,2.608c1.942,1.329 4.421,1.8 8.088,1.8c6.466,0 11.908,-3.404 13.225,-8.292c0.637,-2.358 0.687,-5.758 -6.171,-7.979c-3.3,-1.104 -5.208,-2.291 -4.521,-4.837c0.8,-2.954 3.454,-4.725 7.104,-4.725c2.584,0 4.4,0.796 5.254,1.258c0.217,-0.042 2,-2.362 2,-2.362c-1.608,-1.225 -4.112,-1.767 -7.104,-1.767c-5.95,0 -11.154,3.312 -12.387,7.858" style="fill:#787f84;fill-rule:nonzero;"/><path d="M430.301,220.875l-7.475,27.708l4.971,0c0.163,-0.121 7.604,-27.708 7.604,-27.708l-4.971,0l-0.129,0Z" style="fill:#787f84;fill-rule:nonzero;"/><path d="M439.105,220.875l-0.709,2.662l7.317,0c-0.225,0.009 -6.925,25.046 -6.925,25.046l4.967,0c0.166,-0.121 6.933,-25.046 6.933,-25.046l6.992,0c0.162,-0.129 0.829,-2.662 0.829,-2.662l-19.275,0l-0.129,0Z" style="fill:#787f84;fill-rule:nonzero;"/><path d="M481.087,220.875c0,0 -10.825,12.425 -10.83,12.433c0.005,-0.008 0.005,-0.008 0.005,-0.02c-0.009,-0.563 -3.6,-12.413 -3.6,-12.413l-5.338,0c-0.162,0.229 5.458,15.492 5.458,15.492c-0.004,-0.109 -3.291,12.216 -3.291,12.216l4.962,0c0.167,-0.12 3.463,-12.225 3.463,-12.225c0.012,0.009 13.971,-15.483 13.971,-15.483l-4.721,0l-0.079,0Z" style="fill:#787f84;fill-rule:nonzero;"/><path d="M515.136,223.184c2.033,0 3.537,0.604 4.462,1.8c1.788,2.321 1.163,6.488 0.329,9.596c-2.079,7.7 -5.695,11.45 -11.054,11.45c-2.133,0 -3.679,-0.617 -4.616,-1.821c-1.4,-1.817 -1.475,-4.933 -0.238,-9.537c1.417,-5.238 4.496,-11.488 11.117,-11.488m0.65,-2.792c-8.342,0 -14.538,5.217 -16.992,14.3c-1.296,4.821 -0.983,8.675 0.933,11.142c1.663,2.163 4.496,3.258 8.417,3.258c8.317,0 14.484,-5.208 16.942,-14.295c1.296,-4.809 0.966,-8.667 -0.954,-11.155c-1.663,-2.158 -4.471,-3.25 -8.346,-3.25" style="fill:#787f84;fill-rule:nonzero;"/><path d="M533.498,220.875l-7.467,27.708l4.966,0l3.68,-12.962l10.437,0c0.163,-0.125 0.825,-2.625 0.825,-2.625l-10.767,0l2.759,-9.438l11.637,0c0.163,-0.129 0.834,-2.683 0.834,-2.683l-16.775,0l-0.129,0Z" style="fill:#787f84;fill-rule:nonzero;"/><path d="M567.128,228.248c-0.933,3.45 1.004,5.992 5.75,7.579c4.025,1.334 5.354,2.755 4.717,5.075c-0.821,3.067 -3.946,5.042 -7.963,5.042c-2.329,0 -4.292,-0.421 -5.837,-1.258c-0.217,0.05 -2.159,2.608 -2.159,2.608c1.946,1.329 4.421,1.8 8.084,1.8c6.475,0 11.912,-3.404 13.229,-8.292c0.641,-2.358 0.691,-5.745 -6.163,-7.979c-3.308,-1.104 -5.216,-2.291 -4.537,-4.837c0.808,-2.954 3.458,-4.725 7.108,-4.725c2.588,0 4.404,0.796 5.263,1.258c0.216,-0.042 1.987,-2.362 1.987,-2.362c-1.6,-1.225 -4.1,-1.767 -7.1,-1.767c-5.946,0 -11.154,3.312 -12.379,7.858" style="fill:#787f84;fill-rule:nonzero;"/><path d="M586.877,234.693c-1.184,4.38 -0.717,8.234 1.295,10.85c1.796,2.321 4.742,3.55 8.521,3.55c2.863,0 5.609,-0.558 7.542,-1.537c0.079,-0.196 -0.542,-2.521 -0.542,-2.521c-1.504,0.413 -3.112,0.95 -5.479,0.95c-2.404,0 -4.183,-0.737 -5.296,-2.175c-1.491,-1.933 -1.745,-5.137 -0.7,-9.017c1.942,-7.17 6.521,-11.445 12.259,-11.445c1.787,0 3.35,0.354 4.637,1.054c0.221,-0.038 1.946,-2.204 1.946,-2.204c-1.596,-1.28 -3.846,-1.809 -6.721,-1.809c-8.012,0 -15.187,5.888 -17.462,14.304" style="fill:#787f84;fill-rule:nonzero;"/><path d="M616.023,220.875l-7.467,27.708l4.967,0c0.162,-0.121 7.6,-27.708 7.6,-27.708l-4.971,0l-0.129,0Z" style="fill:#787f84;fill-rule:nonzero;"/><path d="M628.48,220.875l-7.466,27.708l16.821,0c0.162,-0.121 0.837,-2.604 0.837,-2.604l-12.012,0c0.229,-0.021 3.004,-10.358 3.004,-10.358l10.491,0c0.163,-0.125 0.817,-2.625 0.817,-2.625l-10.817,0c0.234,-0.013 2.759,-9.438 2.759,-9.438l11.696,0c0.158,-0.129 0.825,-2.683 0.825,-2.683l-16.821,0l-0.134,0Z" style="fill:#787f84;fill-rule:nonzero;"/><path d="M655.958,220.875l-5.221,0c-0.166,0.129 -7.595,27.708 -7.595,27.708l4.187,0c0.159,-0.121 5.563,-20.033 5.563,-20.033c0,0 0.712,-3.171 0.75,-3.342l11.071,23.375l4.333,0c0.167,-0.121 7.604,-27.708 7.604,-27.708l-4.188,0l-0.133,0l-5.871,22.237l-10.5,-22.237Z" style="fill:#787f84;fill-rule:nonzero;"/><path d="M677.803,234.693c-1.183,4.38 -0.721,8.234 1.3,10.85c1.796,2.321 4.733,3.55 8.517,3.55c2.858,0 5.608,-0.558 7.533,-1.537c0.092,-0.196 -0.538,-2.521 -0.538,-2.521c-1.504,0.413 -3.112,0.95 -5.475,0.95c-2.4,0 -4.179,-0.737 -5.3,-2.175c-1.495,-1.933 -1.741,-5.137 -0.691,-9.017c1.941,-7.17 6.521,-11.445 12.254,-11.445c1.787,0 3.35,0.354 4.642,1.054c0.216,-0.038 1.941,-2.204 1.941,-2.204c-1.596,-1.28 -3.846,-1.809 -6.725,-1.809c-8.004,0 -15.187,5.888 -17.458,14.304" style="fill:#787f84;fill-rule:nonzero;"/><path d="M708.571,220.875l-7.467,27.708l16.821,0l0.837,-2.604l-12.02,0l3.008,-10.358l10.492,0c0.162,-0.125 0.816,-2.625 0.816,-2.625l-10.808,0l2.754,-9.438l11.688,0c0.162,-0.129 0.829,-2.683 0.829,-2.683l-16.817,0l-0.133,0Z" style="fill:#787f84;fill-rule:nonzero;"/><path d="M757.553,224.387l1.3,13.608l-10.525,0l9.225,-13.608Zm-1.266,-3.513l-19.655,27.713l4.534,0c0.133,-0.075 5.862,-8.13 5.862,-8.13l12.179,0c-0.004,0 -0.012,-0.075 -0.012,0c0.021,1 1.012,8.13 1.012,8.13l5.134,0c0.162,-0.196 -4.513,-27.713 -4.513,-27.713l-4.454,0l-0.087,0Z" style="fill:#787f84;fill-rule:nonzero;"/><path d="M781.384,220.875l-5.225,0c-0.167,0.129 -7.6,27.708 -7.6,27.708l4.183,0c0.163,-0.121 5.575,-20.033 5.575,-20.033c0,0 0.713,-3.179 0.746,-3.342l11.071,23.375l4.337,0c0.163,-0.121 7.596,-27.708 7.596,-27.708l-4.179,0l-0.138,0l-5.22,19.267c0,0 -0.605,2.787 -0.646,2.97l-10.5,-22.237Z" style="fill:#787f84;fill-rule:nonzero;"/><path d="M814.705,223.54c1.229,-0.279 2.537,-0.437 4.429,-0.437c3.012,0 5.133,0.783 6.329,2.325c1.421,1.842 1.583,4.854 0.471,8.95c-2.192,8.137 -6.221,11.767 -13.067,11.767c-1.687,0 -3.158,-0.171 -4.133,-0.475c0.096,-0.355 5.971,-22.13 5.971,-22.13m-4.605,-1.608l-0.079,0.025l-6.862,25.433c1.908,1.125 5.429,1.705 9.275,1.705c9.437,0 16.287,-5.317 18.791,-14.58c1.188,-4.408 0.834,-7.875 -1.062,-10.325c-1.942,-2.516 -5.404,-3.8 -10.3,-3.8c-3.629,0 -7.188,0.563 -9.763,1.542" style="fill:#787f84;fill-rule:nonzero;"/><path d="M855.482,220.875l-0.708,2.662l7.321,0c-0.23,0.009 -6.934,25.046 -6.934,25.046l4.967,0c0.167,-0.121 6.933,-25.046 6.933,-25.046l6.992,0c0.171,-0.129 0.837,-2.662 0.837,-2.662l-19.283,0l-0.125,0Z" style="fill:#787f84;fill-rule:nonzero;"/><path d="M880.615,220.875l-7.467,27.708l16.825,0c0.162,-0.121 0.842,-2.604 0.842,-2.604l-12.021,0c0.225,-0.021 3,-10.358 3,-10.358l10.491,0c0.163,-0.125 0.821,-2.625 0.821,-2.625l-10.812,0c0.229,-0.013 2.754,-9.438 2.754,-9.438l11.696,0c0.162,-0.129 0.825,-2.683 0.825,-2.683l-16.825,0l-0.129,0Z" style="fill:#787f84;fill-rule:nonzero;"/><path d="M897.609,234.693c-1.184,4.38 -0.717,8.234 1.3,10.85c1.796,2.321 4.741,3.55 8.516,3.55c2.863,0 5.609,-0.558 7.542,-1.537c0.083,-0.196 -0.542,-2.521 -0.542,-2.521c-1.5,0.413 -3.108,0.95 -5.479,0.95c-2.396,0 -4.175,-0.737 -5.296,-2.175c-1.491,-1.933 -1.745,-5.137 -0.7,-9.017c1.946,-7.17 6.525,-11.445 12.259,-11.445c1.787,0 3.35,0.354 4.641,1.054c0.217,-0.038 1.955,-2.204 1.955,-2.204c-1.605,-1.28 -3.85,-1.809 -6.734,-1.809c-8.008,0 -15.187,5.888 -17.462,14.304" style="fill:#787f84;fill-rule:nonzero;"/><path d="M946.297,220.875l-3.3,12.079l-13.359,0c0.229,-0.021 3.429,-12.079 3.429,-12.079l-4.975,0c-0.166,0.129 -7.595,27.708 -7.595,27.708l4.971,0c0.162,-0.121 3.674,-12.962 3.674,-12.962l13.359,0c-0.229,0.016 -3.675,12.962 -3.675,12.962l4.966,0c0.163,-0.121 7.605,-27.708 7.605,-27.708l-4.98,0l-0.12,0Z" style="fill:#787f84;fill-rule:nonzero;"/><path d="M980.165,220.875l-5.225,19.267c0,0 -0.612,2.787 -0.654,2.97c-0.025,-0.487 -1.046,-2.875 -1.046,-2.875l-9.454,-19.362l-5.217,0c-0.162,0.129 -7.6,27.708 -7.6,27.708l4.188,0c0.158,-0.121 5.566,-20.033 5.566,-20.033c0,0 0.709,-3.171 0.746,-3.342c0.029,0.5 1.2,3.284 1.2,3.284l9.875,20.091l4.338,0c0.154,-0.121 7.596,-27.708 7.596,-27.708l-4.188,0l-0.125,0Z" style="fill:#787f84;fill-rule:nonzero;"/><path d="M1002.6,223.184c2.038,0 3.542,0.604 4.459,1.8c1.791,2.321 1.171,6.488 0.333,9.596c-2.083,7.7 -5.696,11.45 -11.054,11.45c-2.129,0 -3.675,-0.617 -4.608,-1.821c-1.405,-1.817 -1.488,-4.933 -0.246,-9.537c1.421,-5.238 4.496,-11.488 11.116,-11.488m-16.333,11.508c-1.3,4.821 -0.983,8.675 0.921,11.142c1.667,2.163 4.504,3.258 8.421,3.258c8.308,0 14.487,-5.208 16.937,-14.295c1.296,-4.809 0.971,-8.663 -0.946,-11.15c-1.666,-2.155 -4.475,-3.255 -8.341,-3.255c-8.35,0 -14.542,5.217 -16.992,14.3" style="fill:#787f84;fill-rule:nonzero;"/><path d="M1022.09,220.875l-7.471,27.708l16.85,0c0.167,-0.121 0.838,-2.604 0.838,-2.604l-12.046,0c0.225,-0.008 6.933,-25.104 6.933,-25.104l-4.971,0l-0.133,0Z" style="fill:#787f84;fill-rule:nonzero;"/><path d="M1052.71,223.184c2.034,0 3.534,0.604 4.455,1.8c1.791,2.321 1.166,6.488 0.325,9.596c-2.071,7.7 -5.692,11.45 -11.046,11.45c-2.129,0 -3.679,-0.617 -4.613,-1.821c-1.4,-1.817 -1.483,-4.933 -0.233,-9.537c1.408,-5.238 4.483,-11.488 11.112,-11.488m-16.337,11.508c-1.304,4.821 -0.983,8.675 0.925,11.142c1.662,2.163 4.5,3.258 8.417,3.258c8.312,0 14.487,-5.208 16.937,-14.295c1.3,-4.809 0.975,-8.663 -0.946,-11.15c-1.666,-2.155 -4.479,-3.255 -8.35,-3.255c-8.341,0 -14.533,5.217 -16.983,14.3" style="fill:#787f84;fill-rule:nonzero;"/><path d="M1067.48,234.498c-1.188,4.384 -0.771,8.05 1.191,10.596c2.021,2.617 5.542,4 10.188,4c4.687,0 7.212,-0.612 9.558,-1.529c0.104,-0.113 3.975,-14.567 3.975,-14.567l-10.929,0c-0.167,0.129 -0.787,2.45 -0.787,2.45l6.27,0c-0.225,0.017 -2.954,10.225 -2.954,10.225c-0.958,0.304 -2.512,0.513 -4.5,0.513c-2.633,0 -4.7,-0.871 -5.975,-2.525c-1.546,-2 -1.829,-5.029 -0.829,-8.75c2.046,-7.567 6.763,-11.563 13.646,-11.563c3.504,0 5.321,0.684 6.087,1.096c0.205,-0.037 2.234,-2.317 2.234,-2.317c-1.229,-0.933 -3.609,-1.737 -8.15,-1.737c-7.575,0 -16.396,4.367 -19.025,14.108" style="fill:#787f84;fill-rule:nonzero;"/><path d="M1118.4,220.875c0,0 -10.821,12.425 -10.825,12.433c0.005,-0.008 0.005,-0.008 0.005,-0.02c-0.017,-0.559 -3.609,-12.413 -3.609,-12.413l-5.341,0c-0.151,0.229 5.47,15.492 5.47,15.492c-0.004,-0.109 -3.3,12.216 -3.3,12.216l4.975,0c0.159,-0.12 3.459,-12.225 3.459,-12.225c0.016,0.009 13.966,-15.483 13.966,-15.483l-4.716,0l-0.084,0Z" style="fill:#787f84;fill-rule:nonzero;"/><path d="M792.573,128.378l-29.312,0l-5.242,19.592l58.563,0c19.604,0 31.233,-13.812 35.316,-29.025c4.084,-15.212 -3.133,-27.55 -22.583,-27.55l-117.163,0l-20.658,77.013c-2.258,8.416 2.746,15.245 11.167,15.245l116.15,0l5.258,-19.587l-83.142,0c-1.358,0 -2.166,-1.092 -1.795,-2.45l13.57,-50.629l47.567,0c4.4,0 7,3.575 5.821,7.958c-1.179,4.392 -4.867,9.433 -13.517,9.433" style="fill:#c51064;fill-rule:nonzero;"/><path d="M908.3,113.431c0.379,-1.342 1.729,-2.425 3.087,-2.442l81.075,0l5.242,-19.596l-129.271,0l-20.504,76.367c-2.333,8.733 3.167,15.892 12.213,15.892l112.837,0l5.254,-19.584l-79.391,0c-2.259,0 -3.646,-1.795 -3.05,-3.979l12.508,-46.658Z" style="fill:#c51064;fill-rule:nonzero;"/><path d="M1102.1,91.395l-8.95,33.392l-45.383,0l8.941,-33.392l-45.796,0l-24.729,92.258l45.804,0l10.534,-39.275l45.383,0l-10.533,39.275l45.821,0l24.72,-92.258l-45.812,0Z" style="fill:#c51064;fill-rule:nonzero;"/><path d="M216.93,96.046c-3.966,-2.95 -9.812,-4.65 -17.941,-4.65l-115.704,0l-24.796,92.204l45.821,-0.012l19.533,-72.6l43.696,0c8.158,0 10.608,5.392 8.825,12.067c-1.788,6.662 -8.642,12.062 -15.304,12.062l-29.634,0l-5.246,19.592l55.834,0c20.066,0 35.462,-14.184 40.141,-31.667c3.075,-11.421 2.267,-21.446 -5.225,-26.996" style="fill:#c51064;fill-rule:nonzero;"/><path d="M338.126,119.231l-9.859,36.809c-1.212,4.533 -5.912,8.245 -10.441,8.245l-42.721,0c-4.538,0 -7.246,-3.712 -6.038,-8.245l9.859,-36.809c1.212,-4.533 5.912,-8.246 10.441,-8.246l42.725,0c6.209,0 7.25,3.713 6.034,8.246m28.55,-27.837l-101.371,0c-17.35,0 -27.375,9.625 -31.021,23.216l-11.842,44.546c-3.645,13.596 4.488,24.721 18.092,24.721l101.363,0c18.187,0 27.704,-11.125 31.354,-24.721l11.525,-43.041c3.637,-13.592 0,-24.721 -18.1,-24.721" style="fill:#c51064;fill-rule:nonzero;"/><path d="M701.222,91.395l-149.875,0l-5.242,19.592l52.963,0l-19.521,72.895l46.533,-0.008l19.517,-72.887l50.363,0l5.262,-19.592Z" style="fill:#c51064;fill-rule:nonzero;"/><path d="M394.892,118.945c-4.079,15.212 4.955,27.55 20.155,27.55l62.541,0c4.917,0 7.838,3.983 6.517,8.891c-1.317,4.921 -5.029,8.9 -11.279,8.9l-84.846,0l-5.254,19.588l111.075,0c20.625,0 31.904,-12.75 36.121,-28.488c4.212,-15.729 -0.134,-28.496 -20.859,-28.496l-62.546,0c-4.391,0 -7,-3.554 -5.808,-7.945l2.125,-7.959l92.95,0l5.246,-19.591l-138.758,0l-7.38,27.55Z" style="fill:#c51064;fill-rule:nonzero;"/><path d="M84.265,7.622l-7.817,0l4.504,38.055c0.1,0.75 0.417,1.345 0.946,1.762c0.525,0.417 1.354,0.629 2.471,0.629l5.404,0l26.587,-40.446l-7.933,0c0,0 -17.542,27.413 -20.896,32.684l-3.266,-32.684Z" style="fill:#f58345;fill-rule:nonzero;"/><path d="M115.209,39.631l0.767,-2.837c0.333,-1.242 0.916,-2.129 1.733,-2.642c0.825,-0.517 1.988,-0.779 3.446,-0.779c1.075,0 2.254,0.025 3.504,0.079c1.183,0.05 2.467,0.146 3.833,0.275l-2.412,8.933l-7.508,0c-0.446,0 -0.909,-0.045 -1.405,-0.133c-0.483,-0.087 -0.895,-0.237 -1.254,-0.462c-0.341,-0.209 -0.591,-0.517 -0.733,-0.913c-0.146,-0.396 -0.138,-0.908 0.029,-1.521m13.404,-21.458l-12.75,0l-0.596,2.204c-0.12,0.446 -0.175,0.85 -0.158,1.2c0.013,0.375 0.15,0.713 0.413,1.004c0.258,0.292 0.691,0.517 1.287,0.667c0.571,0.146 1.354,0.221 2.325,0.221l8.133,0c1.4,0 2.355,0.279 2.83,0.833c0.47,0.554 0.579,1.317 0.32,2.267l-0.445,1.654c-1.196,-0.138 -2.359,-0.229 -3.455,-0.283c-1.158,-0.055 -2.504,-0.1 -4,-0.134c-3.583,-0.071 -6.629,0.588 -9.075,1.954c-2.458,1.38 -4.129,3.655 -4.966,6.767l-0.884,3.283c-0.737,2.738 -0.229,4.825 1.513,6.205c1.721,1.358 4.425,2.05 8.029,2.05l15.063,0l5.775,-21.421c0.737,-2.729 0.366,-4.85 -1.096,-6.3c-1.454,-1.442 -4.234,-2.171 -8.263,-2.171" style="fill:#f58345;fill-rule:nonzero;"/><path d="M158.426,7.354l-7.571,0l-10.025,37.191c-0.354,1.321 -0.266,2.221 0.275,2.746c0.525,0.513 1.505,0.775 2.917,0.775l3.429,0l10.975,-40.712Z" style="fill:#f58345;fill-rule:nonzero;"/><path d="M190.716,18.171l-7.571,0l-6.6,24.488l-6.575,0c-1.025,0 -1.879,-0.071 -2.529,-0.209c-0.634,-0.137 -1.104,-0.408 -1.4,-0.804c-0.304,-0.404 -0.459,-0.966 -0.467,-1.662c-0.012,-0.717 0.142,-1.671 0.454,-2.834l5.117,-18.979l-7.508,0l-5.109,18.946c-0.55,2.058 -0.766,3.796 -0.633,5.163c0.137,1.391 0.637,2.533 1.496,3.4c0.854,0.858 2.062,1.479 3.591,1.841c1.517,0.363 3.405,0.546 5.613,0.546l14.062,0l8.059,-29.896Z" style="fill:#f58345;fill-rule:nonzero;"/><path d="M215.282,27.237l-0.608,2.25c-0.079,0.288 -0.229,0.517 -0.467,0.692c-0.233,0.175 -0.483,0.262 -0.733,0.262l-11.683,0l0.841,-3.129c0.367,-1.346 1.225,-2.442 2.559,-3.258c1.337,-0.817 2.971,-1.234 4.85,-1.234c2.116,0 3.629,0.413 4.496,1.217c0.862,0.804 1.108,1.854 0.745,3.2m5.471,-7.275c-1.021,-0.817 -2.346,-1.454 -3.933,-1.892c-1.575,-0.433 -3.392,-0.65 -5.4,-0.65c-1.842,0 -3.663,0.196 -5.417,0.592c-1.758,0.396 -3.396,1.038 -4.871,1.904c-1.466,0.867 -2.775,2 -3.879,3.371c-1.104,1.375 -1.925,3.042 -2.437,4.95l-2.7,10.013c-0.813,3.016 -0.325,5.433 1.454,7.187c1.762,1.746 4.554,2.629 8.292,2.629l9.566,0c1,0 1.829,-0.075 2.471,-0.221c0.642,-0.15 1.167,-0.362 1.558,-0.625c0.4,-0.262 0.7,-0.591 0.896,-0.979c0.184,-0.375 0.338,-0.783 0.459,-1.225l0.633,-2.358l-14.208,0c-1.284,0 -2.305,-0.375 -3.042,-1.117c-0.729,-0.737 -0.908,-1.812 -0.533,-3.204l0.67,-2.492l14.58,0c1.9,0 3.437,-0.445 4.57,-1.325c1.13,-0.879 1.88,-1.995 2.238,-3.316l1.05,-3.888c0.421,-1.566 0.45,-2.991 0.087,-4.233c-0.366,-1.242 -1.07,-2.292 -2.104,-3.121" style="fill:#f58345;fill-rule:nonzero;"/><path d="M257.185,18.881c1.046,-3.883 3.958,-5.854 8.65,-5.854l10.629,0c1.025,0 1.846,-0.079 2.513,-0.246c0.666,-0.166 1.216,-0.404 1.641,-0.696c0.429,-0.3 0.759,-0.662 0.975,-1.075c0.217,-0.4 0.388,-0.829 0.504,-1.266l0.571,-2.121l-15.641,0c-4.555,0 -8.392,0.937 -11.4,2.796c-3.017,1.858 -4.992,4.45 -5.871,7.7l-5.179,19.216c-0.43,1.596 -0.5,3.075 -0.2,4.396c0.3,1.334 0.912,2.479 1.829,3.409c0.912,0.929 2.108,1.654 3.55,2.162c1.437,0.508 3.125,0.763 5.008,0.763l12.821,0c1.987,0 3.387,-0.321 4.162,-0.959c0.767,-0.633 1.275,-1.391 1.509,-2.25l0.591,-2.196l-17.454,0c-0.933,0 -1.716,-0.158 -2.333,-0.466c-0.613,-0.309 -1.088,-0.725 -1.404,-1.238c-0.321,-0.512 -0.509,-1.121 -0.567,-1.816c-0.054,-0.7 0.017,-1.421 0.217,-2.155l4.879,-18.104Z" style="fill:#f58345;fill-rule:nonzero;"/><path d="M306.555,19.915l0.47,-1.742l-11.579,0c-3.391,0 -6.033,0.671 -7.846,1.996c-1.812,1.321 -3.066,3.242 -3.729,5.7l-5.033,18.679c-0.358,1.321 -0.267,2.217 0.271,2.746c0.525,0.513 1.504,0.771 2.916,0.771l3.438,0l5.962,-22.121c0.188,-0.696 0.488,-1.296 0.9,-1.775c0.396,-0.467 0.992,-0.7 1.771,-0.7l6.442,0c1.433,0 2.712,-0.25 3.796,-0.742c1.108,-0.5 1.854,-1.445 2.221,-2.812" style="fill:#f58345;fill-rule:nonzero;"/><path d="M328.464,27.237l-0.604,2.25c-0.079,0.288 -0.233,0.517 -0.467,0.692c-0.233,0.175 -0.483,0.262 -0.737,0.262l-11.684,0l0.846,-3.129c0.363,-1.346 1.221,-2.442 2.555,-3.258c1.341,-0.817 2.974,-1.234 4.849,-1.234c2.117,0 3.63,0.413 4.496,1.217c0.867,0.804 1.109,1.854 0.746,3.2m5.471,-7.275c-1.021,-0.817 -2.346,-1.454 -3.929,-1.892c-1.579,-0.433 -3.396,-0.65 -5.404,-0.65c-1.842,0 -3.663,0.196 -5.417,0.592c-1.754,0.396 -3.396,1.038 -4.867,1.904c-1.471,0.867 -2.775,2 -3.879,3.371c-1.104,1.375 -1.925,3.042 -2.442,4.95l-2.7,10.013c-0.812,3.016 -0.32,5.433 1.455,7.187c1.766,1.746 4.554,2.629 8.291,2.629l9.571,0c0.996,0 1.829,-0.075 2.471,-0.221c0.637,-0.15 1.163,-0.362 1.554,-0.625c0.4,-0.262 0.7,-0.591 0.896,-0.979c0.188,-0.375 0.338,-0.783 0.458,-1.225l0.634,-2.358l-14.209,0c-1.279,0 -2.304,-0.375 -3.041,-1.117c-0.725,-0.737 -0.905,-1.812 -0.534,-3.204l0.675,-2.492l14.575,0c1.904,0 3.442,-0.445 4.571,-1.325c1.133,-0.879 1.883,-1.995 2.242,-3.316l1.046,-3.888c0.42,-1.566 0.454,-2.991 0.087,-4.233c-0.362,-1.242 -1.071,-2.292 -2.104,-3.121" style="fill:#f58345;fill-rule:nonzero;"/><path d="M346.201,39.631l0.767,-2.837c0.333,-1.242 0.916,-2.129 1.733,-2.642c0.825,-0.517 1.987,-0.779 3.446,-0.779c1.075,0 2.254,0.025 3.504,0.079c1.179,0.05 2.467,0.146 3.829,0.275l-2.408,8.933l-7.509,0c-0.445,0 -0.908,-0.045 -1.404,-0.133c-0.483,-0.087 -0.896,-0.237 -1.254,-0.462c-0.346,-0.209 -0.592,-0.517 -0.733,-0.913c-0.146,-0.396 -0.138,-0.908 0.029,-1.521m13.404,-21.458l-12.75,0l-0.596,2.204c-0.121,0.446 -0.175,0.85 -0.158,1.2c0.012,0.375 0.15,0.713 0.412,1.004c0.255,0.292 0.688,0.517 1.284,0.667c0.575,0.146 1.358,0.221 2.329,0.221l8.129,0c1.404,0 2.354,0.279 2.833,0.833c0.471,0.554 0.58,1.317 0.321,2.267l-0.446,1.654c-1.195,-0.138 -2.358,-0.229 -3.454,-0.283c-1.158,-0.055 -2.504,-0.1 -4,-0.134c-3.566,-0.071 -6.629,0.588 -9.075,1.954c-2.458,1.38 -4.129,3.655 -4.966,6.767l-0.884,3.283c-0.737,2.738 -0.229,4.825 1.513,6.205c1.721,1.358 4.421,2.05 8.025,2.05l15.066,0l5.775,-21.421c0.738,-2.729 0.367,-4.85 -1.095,-6.3c-1.455,-1.442 -4.234,-2.171 -8.263,-2.171" style="fill:#f58345;fill-rule:nonzero;"/><path d="M373.927,39.648c-0.733,2.725 -0.567,4.829 0.496,6.254c1.067,1.437 3.379,2.166 6.875,2.166l3.746,0c1.783,0 3.096,-0.316 3.904,-0.933c0.808,-0.617 1.337,-1.362 1.567,-2.225l0.608,-2.25l-7.571,0c-0.908,0 -1.562,-0.217 -1.946,-0.646c-0.383,-0.425 -0.421,-1.212 -0.116,-2.341l4.37,-16.205l5.192,0c1.971,0 3.304,-0.283 4.071,-0.866c0.758,-0.575 1.262,-1.313 1.5,-2.204l0.6,-2.225l-9.938,0l2.013,-6.996l-7.571,0l-7.8,28.471Z" style="fill:#f58345;fill-rule:nonzero;"/><path d="M731.072,39.648c-0.733,2.725 -0.567,4.829 0.496,6.254c1.062,1.437 3.375,2.166 6.875,2.166l3.746,0c1.779,0 3.091,-0.316 3.904,-0.933c0.808,-0.617 1.333,-1.362 1.567,-2.225l0.608,-2.25l-7.571,0c-0.908,0 -1.562,-0.217 -1.946,-0.646c-0.383,-0.425 -0.421,-1.212 -0.116,-2.341l4.366,-16.205l5.192,0c1.975,0 3.308,-0.283 4.075,-0.866c0.758,-0.575 1.262,-1.313 1.5,-2.204l0.6,-2.225l-9.938,0l2.009,-6.996l-7.567,0l-7.8,28.471Z" style="fill:#f58345;fill-rule:nonzero;"/><path d="M410.485,14.375l2.871,0l2.025,-7.508l-7.825,0l-0.983,3.666c-0.338,1.234 -0.092,2.2 0.72,2.863c0.796,0.65 1.871,0.979 3.192,0.979" style="fill:#f58345;fill-rule:nonzero;"/><path d="M397.527,44.547c-0.354,1.316 -0.275,2.216 0.242,2.745c0.508,0.521 1.496,0.775 3.008,0.775l3.371,0l8.059,-29.895l-7.571,0l-7.109,26.375Z" style="fill:#f58345;fill-rule:nonzero;"/><path d="M441.141,18.688c-1.433,-0.346 -3.287,-0.517 -5.496,-0.517l-15.187,0l-7.108,26.375c-0.355,1.321 -0.267,2.217 0.27,2.746c0.53,0.521 1.525,0.775 3.042,0.775l3.308,0l6.63,-24.6l7.695,0c1.692,0 2.788,0.292 3.259,0.863c0.471,0.57 0.483,1.704 0.033,3.37l-4.542,16.846c-0.354,1.321 -0.266,2.221 0.275,2.746c0.521,0.513 1.5,0.775 2.913,0.775l3.433,0l5.471,-20.296c0.454,-1.696 0.65,-3.171 0.579,-4.375c-0.075,-1.233 -0.496,-2.25 -1.25,-3.025c-0.75,-0.771 -1.871,-1.337 -3.325,-1.683" style="fill:#f58345;fill-rule:nonzero;"/><path d="M461.964,24.749c1.058,-0.85 2.479,-1.279 4.225,-1.279l7.054,0l-5.175,19.187l-7.133,0c-0.533,0 -1.092,-0.058 -1.667,-0.183c-0.562,-0.117 -1.062,-0.334 -1.475,-0.642c-0.412,-0.304 -0.696,-0.729 -0.862,-1.292c-0.167,-0.562 -0.125,-1.304 0.116,-2.208l2.809,-10.412c0.337,-1.255 1.046,-2.317 2.108,-3.171m-4.254,-4.163c-2.721,1.613 -4.538,4.042 -5.392,7.221l-2.833,10.496c-0.862,3.2 -0.379,5.65 1.429,7.3c1.796,1.633 4.704,2.462 8.642,2.462l7.058,0l-0.771,2.859c-0.241,0.891 -0.712,1.616 -1.4,2.162c-0.679,0.546 -1.62,0.821 -2.787,0.821l-9.129,0c-1.484,0 -2.654,0.238 -3.484,0.704c-0.841,0.467 -1.416,1.254 -1.708,2.342l-0.637,2.358l13.766,0c2.05,0 3.842,-0.237 5.334,-0.704c1.491,-0.471 2.762,-1.104 3.77,-1.883c1.013,-0.779 1.83,-1.671 2.43,-2.65c0.595,-0.971 1.033,-1.963 1.3,-2.942l8.883,-32.962l-14.646,0c-3.804,0 -7.108,0.812 -9.825,2.416" style="fill:#f58345;fill-rule:nonzero;"/><path d="M544.614,7.622l-7.634,0l-9.445,35.038l-12.075,0c-1.15,0 -2.1,-0.088 -2.825,-0.263c-0.709,-0.17 -1.242,-0.462 -1.584,-0.866c-0.337,-0.4 -0.521,-0.95 -0.533,-1.629c-0.017,-0.696 0.125,-1.588 0.408,-2.65l7.992,-29.63l-7.638,0l-7.966,29.55c-0.584,2.163 -0.779,3.963 -0.588,5.355c0.196,1.412 0.767,2.545 1.696,3.375c0.925,0.82 2.217,1.391 3.846,1.704c1.617,0.304 3.571,0.462 5.817,0.462l19.625,0l10.904,-40.446Z" style="fill:#f58345;fill-rule:nonzero;"/><path d="M570.955,18.688c-1.438,-0.346 -3.288,-0.517 -5.496,-0.517l-15.188,0l-7.108,26.375c-0.358,1.321 -0.271,2.217 0.271,2.746c0.529,0.521 1.525,0.775 3.041,0.775l3.305,0l6.633,-24.6l7.696,0c1.691,0 2.787,0.292 3.258,0.863c0.471,0.57 0.479,1.704 0.029,3.37l-4.537,16.846c-0.354,1.321 -0.267,2.221 0.275,2.746c0.521,0.513 1.5,0.775 2.912,0.775l3.434,0l5.466,-20.296c0.459,-1.696 0.654,-3.171 0.584,-4.375c-0.075,-1.233 -0.496,-2.25 -1.255,-3.025c-0.75,-0.771 -1.866,-1.337 -3.32,-1.683" style="fill:#f58345;fill-rule:nonzero;"/><path d="M587.534,10.532c-0.334,1.233 -0.088,2.2 0.725,2.862c0.796,0.65 1.866,0.979 3.191,0.979l2.871,0l2.021,-7.504l-7.821,0l-0.987,3.663Z" style="fill:#f58345;fill-rule:nonzero;"/><path d="M578.49,44.547c-0.354,1.316 -0.275,2.216 0.242,2.745c0.508,0.521 1.496,0.775 3.008,0.775l3.371,0l8.059,-29.895l-7.571,0l-7.109,26.375Z" style="fill:#f58345;fill-rule:nonzero;"/><path d="M621.958,18.171l-15.817,22.463l-0.904,-22.463l-7.317,0l1.392,27.129c0.062,0.963 0.358,1.675 0.87,2.113c0.509,0.433 1.359,0.654 2.517,0.654l4.9,0l21.538,-29.896l-7.18,0Z" style="fill:#f58345;fill-rule:nonzero;"/><path d="M649.255,27.237l-0.609,2.25c-0.079,0.288 -0.229,0.517 -0.466,0.692c-0.234,0.175 -0.484,0.262 -0.734,0.262l-11.683,0l0.842,-3.129c0.362,-1.346 1.225,-2.442 2.558,-3.258c1.337,-0.817 2.971,-1.234 4.85,-1.234c2.117,0 3.629,0.413 4.496,1.217c0.862,0.804 1.108,1.854 0.746,3.2m5.47,-7.275c-1.02,-0.817 -2.345,-1.454 -3.933,-1.892c-1.575,-0.433 -3.392,-0.65 -5.4,-0.65c-1.842,0 -3.662,0.196 -5.417,0.592c-1.758,0.396 -3.395,1.038 -4.87,1.904c-1.467,0.867 -2.775,2 -3.88,3.371c-1.104,1.375 -1.925,3.042 -2.437,4.95l-2.7,10.013c-0.813,3.016 -0.325,5.433 1.454,7.187c1.763,1.746 4.554,2.629 8.292,2.629l9.566,0c1,0 1.83,-0.075 2.471,-0.221c0.642,-0.15 1.167,-0.362 1.559,-0.625c0.4,-0.262 0.7,-0.591 0.895,-0.979c0.184,-0.375 0.338,-0.783 0.459,-1.225l0.633,-2.358l-14.208,0c-1.284,0 -2.304,-0.375 -3.042,-1.117c-0.729,-0.737 -0.908,-1.812 -0.533,-3.204l0.671,-2.492l14.579,0c1.9,0 3.437,-0.445 4.571,-1.325c1.129,-0.879 1.879,-1.995 2.237,-3.316l1.05,-3.888c0.421,-1.566 0.45,-2.991 0.088,-4.233c-0.367,-1.242 -1.071,-2.292 -2.105,-3.121" style="fill:#f58345;fill-rule:nonzero;"/><path d="M686.563,19.915l0.467,-1.742l-11.579,0c-3.392,0 -6.034,0.671 -7.846,1.996c-1.808,1.321 -3.067,3.242 -3.725,5.7l-5.038,18.679c-0.354,1.321 -0.266,2.217 0.275,2.746c0.525,0.513 1.505,0.771 2.917,0.771l3.433,0l5.963,-22.121c0.188,-0.696 0.492,-1.296 0.9,-1.775c0.396,-0.467 0.992,-0.7 1.771,-0.7l6.446,0c1.433,0 2.712,-0.25 3.796,-0.742c1.104,-0.5 1.854,-1.445 2.22,-2.812" style="fill:#f58345;fill-rule:nonzero;"/><path d="M695.68,18.934c-1.583,0.504 -2.971,1.154 -4.117,1.929c-1.162,0.779 -2.104,1.671 -2.808,2.646c-0.708,0.979 -1.192,1.954 -1.446,2.896c-0.591,2.192 -0.337,3.95 0.754,5.217c1.075,1.254 2.934,2.312 5.521,3.141l5.083,1.563c0.963,0.271 1.584,0.666 1.855,1.183c0.27,0.513 0.304,1.154 0.104,1.9c-0.296,1.092 -0.954,1.913 -1.954,2.442c-1.017,0.537 -2.234,0.808 -3.617,0.808l-7.571,0c-2.9,0 -4.658,1.083 -5.237,3.208l-0.588,2.2l12.017,0c3.762,0 6.966,-0.75 9.521,-2.229c2.566,-1.487 4.241,-3.616 4.975,-6.333c0.529,-1.963 0.375,-3.667 -0.463,-5.058c-0.837,-1.392 -2.667,-2.5 -5.442,-3.3l-5.32,-1.617c-1,-0.271 -1.646,-0.688 -1.925,-1.238c-0.284,-0.566 -0.338,-1.154 -0.159,-1.812c0.209,-0.792 0.717,-1.496 1.504,-2.1c0.784,-0.604 1.938,-0.913 3.438,-0.913l6.5,0c1.608,0 2.846,-0.22 3.692,-0.662c0.858,-0.45 1.441,-1.221 1.733,-2.3l0.629,-2.333l-11.208,0c-2.046,0 -3.888,0.254 -5.471,0.762" style="fill:#f58345;fill-rule:nonzero;"/><path d="M722.104,10.532c-0.333,1.233 -0.087,2.2 0.725,2.862c0.792,0.65 1.867,0.979 3.188,0.979l2.875,0l2.02,-7.504l-7.82,0l-0.988,3.663Z" style="fill:#f58345;fill-rule:nonzero;"/><path d="M713.061,44.547c-0.354,1.316 -0.275,2.216 0.241,2.745c0.509,0.521 1.496,0.775 3.009,0.775l3.371,0l8.058,-29.895l-7.571,0l-7.108,26.375Z" style="fill:#f58345;fill-rule:nonzero;"/><path d="M780.295,18.171l-12.846,20.796l-3.875,-20.796l-7.317,0l5.246,28.925l-5.658,8.696c-0.837,1.321 -1.087,2.221 -0.767,2.746c0.317,0.521 1.213,0.775 2.73,0.775l3.37,0l8.355,-12.917l17.941,-28.225l-7.179,0Z" style="fill:#f58345;fill-rule:nonzero;"/></svg>