<?xml version="1.0" encoding="UTF-8" standalone="no"?><!DOCTYPE svg PUBLIC "-//W3C//DTD SVG 1.1//EN" "http://www.w3.org/Graphics/SVG/1.1/DTD/svg11.dtd"><svg width="100%" height="100%" viewBox="0 0 256 256" version="1.1" xmlns="http://www.w3.org/2000/svg" xmlns:xlink="http://www.w3.org/1999/xlink" xml:space="preserve" xmlns:serif="http://www.serif.com/" style="fill-rule:evenodd;clip-rule:evenodd;stroke-linejoin:round;stroke-miterlimit:2;"><path d="M140.362,256l-24.724,0l-6.363,-21.621c-6.287,-1.1 -12.388,-2.746 -18.252,-4.885l-16.317,15.538l-21.412,-12.362l5.308,-21.941c-4.82,-4.049 -9.282,-8.511 -13.331,-13.331l-21.941,5.308l-12.362,-21.412l15.538,-16.317c-2.139,-5.864 -3.785,-11.965 -4.885,-18.252l-21.621,-6.363l0,-24.724l21.621,-6.363c1.1,-6.287 2.746,-12.388 4.885,-18.252l-15.538,-16.317l12.362,-21.412l21.941,5.308c4.049,-4.82 8.511,-9.282 13.331,-13.331l-5.308,-21.941l21.412,-12.362l16.317,15.538c5.864,-2.139 11.965,-3.785 18.252,-4.885l6.363,-21.621l24.724,0l6.363,21.621c6.287,1.1 12.388,2.746 18.252,4.885l16.317,-15.538l21.412,12.362l-5.308,21.941c4.82,4.049 9.282,8.511 13.331,13.331l21.941,-5.308l12.362,21.412l-15.538,16.317c2.139,5.864 3.785,11.965 4.885,18.252l21.621,6.363l0,24.724l-21.621,6.363c-1.1,6.287 -2.746,12.388 -4.885,18.252l15.538,16.317l-12.362,21.412l-21.941,-5.308c-4.049,4.82 -8.511,9.282 -13.331,13.331l5.308,21.941l-21.412,12.362l-16.317,-15.538c-5.864,2.139 -11.965,3.785 -18.252,4.885l-6.363,21.621Zm-44.355,-222.764c-6.097,2.06 -11.931,4.692 -17.439,7.833l-0.92,0.532c-14.895,8.705 -27.342,21.152 -36.047,36.047l-0.532,0.92c-8.316,14.583 -13.069,31.457 -13.069,49.432c0,17.975 4.753,34.849 13.069,49.432l0.532,0.92c8.705,14.895 21.152,27.342 36.047,36.047l0.92,0.532c5.508,3.141 11.342,5.773 17.439,7.833l0,-33.707l-30.497,-41.976l0,-44.841c-3.622,-1.504 -6.172,-5.076 -6.172,-9.24c0,-5.519 4.48,-10 10,-10c5.519,0 10,4.481 10,10c0,4.036 -2.397,7.517 -5.843,9.096l0,42.39l30.498,41.977l0,38.631c6.446,1.591 13.138,2.557 20.007,2.827l0,-51.877l-27.993,-38.529l0,-104.279Zm63.993,189.526c6.094,-2.06 11.926,-4.692 17.432,-7.831l0.92,-0.532c14.895,-8.705 27.342,-21.152 36.047,-36.047l0.532,-0.92c8.316,-14.583 13.069,-31.457 13.069,-49.432c0,-17.975 -4.753,-34.849 -13.069,-49.432l-0.532,-0.92c-8.705,-14.895 -21.152,-27.342 -36.047,-36.047l-0.92,-0.532c-14.583,-8.316 -31.457,-13.069 -49.432,-13.069c-8.274,0 -16.316,1.007 -24.007,2.906l0,104.015l20.007,27.537l0,-94.291c-3.53,-1.545 -6,-5.07 -6,-9.167c0,-5.519 4.481,-10 10,-10c5.519,0 10,4.481 10,10c0,4.097 -2.47,7.622 -6,9.167l0,159.754c6.866,-0.27 13.556,-1.235 20,-2.825l0,-65.927l26.336,-36.248c-0.824,-1.453 -1.295,-3.132 -1.295,-4.921c0,-5.519 4.481,-10 10,-10c5.519,0 10,4.481 10,10c0,5.519 -4.481,10 -10,10c-0.795,0 -1.569,-0.093 -2.311,-0.269l-24.73,34.037l0,60.994Z" style="fill:#c80150;"/></svg>