<?xml version="1.0" encoding="UTF-8" standalone="no"?><!DOCTYPE svg PUBLIC "-//W3C//DTD SVG 1.1//EN" "http://www.w3.org/Graphics/SVG/1.1/DTD/svg11.dtd"><svg width="100%" height="100%" viewBox="0 0 270 58" version="1.1" xmlns="http://www.w3.org/2000/svg" xmlns:xlink="http://www.w3.org/1999/xlink" xml:space="preserve" xmlns:serif="http://www.serif.com/" style="fill-rule:evenodd;clip-rule:evenodd;stroke-linejoin:round;stroke-miterlimit:2;"><clipPath id="_clip1"><rect x="0.223" y="0" width="57.556" height="57.556"/></clipPath><g clip-path="url(#_clip1)"><path d="M31.78,57.556l-5.558,0l-1.431,-4.861c-1.414,-0.248 -2.785,-0.618 -4.104,-1.099l-3.668,3.494l-4.814,-2.78l1.193,-4.933c-1.083,-0.91 -2.087,-1.913 -2.997,-2.997l-4.933,1.194l-2.779,-4.814l3.493,-3.669c-0.481,-1.318 -0.851,-2.69 -1.098,-4.103l-4.861,-1.431l0,-5.559l4.861,-1.43c0.247,-1.414 0.617,-2.785 1.098,-4.104l-3.493,-3.668l2.779,-4.814l4.933,1.193c0.91,-1.083 1.914,-2.087 2.997,-2.997l-1.193,-4.933l4.814,-2.779l3.668,3.493c1.319,-0.481 2.69,-0.851 4.104,-1.098l1.431,-4.861l5.558,0l1.431,4.861c1.413,0.247 2.785,0.617 4.103,1.098l3.669,-3.493l4.814,2.779l-1.194,4.933c1.084,0.91 2.087,1.914 2.997,2.997l4.933,-1.193l2.78,4.814l-3.494,3.668c0.481,1.319 0.851,2.69 1.099,4.104l4.861,1.43l0,5.559l-4.861,1.431c-0.248,1.413 -0.618,2.785 -1.099,4.103l3.494,3.669l-2.78,4.814l-4.933,-1.194c-0.91,1.084 -1.913,2.087 -2.997,2.997l1.194,4.933l-4.814,2.78l-3.669,-3.494c-1.318,0.481 -2.69,0.851 -4.103,1.099l-1.431,4.861Zm-9.972,-50.084c-1.371,0.463 -2.682,1.055 -3.921,1.761l-0.207,0.12c-3.348,1.957 -6.147,4.756 -8.104,8.104l-0.12,0.207c-1.869,3.279 -2.938,7.073 -2.938,11.114c0,4.041 1.069,7.835 2.938,11.113l0.12,0.207c1.957,3.349 4.756,6.147 8.104,8.105l0.207,0.119c1.239,0.706 2.55,1.298 3.921,1.761l0,-7.578l-6.857,-9.437l0,-10.082c-0.814,-0.338 -1.387,-1.141 -1.387,-2.077c0,-1.241 1.007,-2.248 2.248,-2.248c1.241,0 2.248,1.007 2.248,2.248c0,0.907 -0.539,1.69 -1.313,2.045l0,9.53l6.856,9.438l0,8.685c1.45,0.358 2.954,0.575 4.499,0.636l0,-11.664l-6.294,-8.662l0,-23.445Zm14.387,42.611c1.37,-0.463 2.682,-1.055 3.919,-1.761l0.207,-0.119c3.349,-1.958 6.147,-4.756 8.105,-8.105l0.119,-0.207c1.87,-3.278 2.938,-7.072 2.938,-11.113c0,-4.041 -1.068,-7.835 -2.938,-11.114l-0.119,-0.207c-1.958,-3.348 -4.756,-6.147 -8.105,-8.104l-0.207,-0.12c-3.278,-1.869 -7.072,-2.938 -11.113,-2.938c-1.86,0 -3.668,0.227 -5.398,0.653l0,23.386l4.499,6.191l0,-21.199c-0.794,-0.348 -1.349,-1.14 -1.349,-2.061c0,-1.241 1.007,-2.249 2.248,-2.249c1.241,0 2.248,1.008 2.248,2.249c0,0.921 -0.555,1.713 -1.349,2.061l0,35.917c1.544,-0.061 3.048,-0.278 4.497,-0.635l0,-14.823l5.921,-8.149c-0.186,-0.327 -0.291,-0.704 -0.291,-1.106c0,-1.241 1.007,-2.249 2.248,-2.249c1.241,0 2.248,1.008 2.248,2.249c0,1.24 -1.007,2.248 -2.248,2.248c-0.179,0 -0.353,-0.021 -0.52,-0.061l-5.56,7.653l0,13.713Z" style="fill:#c80150;"/></g><g><path d="M68.032,42.837l0,-28.119l10.499,0c3.321,0 5.887,0.824 7.698,2.47c1.812,1.647 2.718,3.973 2.718,6.979c0,3.005 -0.906,5.328 -2.718,6.968c-1.811,1.64 -4.377,2.46 -7.698,2.46l-5.435,0l0,9.242l-5.064,0Zm5.064,-13.833l5.064,0c2.223,0 3.74,-0.408 4.549,-1.225c0.81,-0.816 1.215,-2.02 1.215,-3.612c0,-1.578 -0.408,-2.769 -1.225,-3.572c-0.816,-0.803 -2.329,-1.204 -4.539,-1.204l-5.064,0l0,9.613Z" style="fill:#c80150;fill-rule:nonzero;"/><path d="M91.45,28.798c0,-2.305 0.267,-4.329 0.803,-6.072c0.535,-1.743 1.224,-3.133 2.068,-4.169c0.844,-1.036 1.863,-1.88 3.057,-2.532c1.194,-0.651 2.361,-1.087 3.5,-1.307c1.139,-0.219 2.367,-0.329 3.684,-0.329c1.318,0 2.546,0.11 3.685,0.329c1.139,0.22 2.306,0.656 3.499,1.307c1.194,0.652 2.22,1.496 3.078,2.532c0.858,1.036 1.554,2.426 2.089,4.169c0.536,1.743 0.803,3.767 0.803,6.072c0,2.278 -0.267,4.296 -0.803,6.052c-0.535,1.757 -1.231,3.146 -2.089,4.169c-0.858,1.022 -1.884,1.859 -3.078,2.511c-1.193,0.652 -2.36,1.088 -3.499,1.307c-1.139,0.22 -2.367,0.33 -3.685,0.33c-1.317,0 -2.545,-0.11 -3.684,-0.33c-1.139,-0.219 -2.306,-0.655 -3.5,-1.307c-1.194,-0.652 -2.213,-1.489 -3.057,-2.511c-0.844,-1.023 -1.533,-2.412 -2.068,-4.169c-0.536,-1.756 -0.803,-3.774 -0.803,-6.052Zm5.064,-0.041c0,2.114 0.209,3.863 0.627,5.249c0.419,1.386 1.037,2.405 1.853,3.057c0.817,0.652 1.654,1.095 2.511,1.328c0.858,0.233 1.877,0.35 3.057,0.35c0.961,0 1.791,-0.062 2.491,-0.185c0.7,-0.124 1.42,-0.388 2.162,-0.793c0.741,-0.405 1.344,-0.967 1.811,-1.688c0.467,-0.72 0.854,-1.698 1.163,-2.933c0.309,-1.235 0.463,-2.697 0.463,-4.385c0,-2.086 -0.209,-3.822 -0.628,-5.208c-0.418,-1.386 -1.043,-2.405 -1.873,-3.057c-0.83,-0.652 -1.667,-1.087 -2.511,-1.307c-0.844,-0.219 -1.87,-0.329 -3.078,-0.329c-0.933,0 -1.749,0.062 -2.449,0.185c-0.7,0.124 -1.424,0.391 -2.172,0.803c-0.748,0.412 -1.352,0.967 -1.811,1.667c-0.46,0.7 -0.844,1.661 -1.153,2.882c-0.309,1.222 -0.463,2.676 -0.463,4.364Z" style="fill:#c80150;fill-rule:nonzero;"/><path d="M118.305,14.718l5.311,0l6.319,20.791l6.69,-20.791l4.426,0l6.711,20.791l6.361,-20.791l5.269,0l-9.016,28.119l-5.228,0l-6.279,-19.597l-6.319,19.597l-5.229,0l-9.016,-28.119Z" style="fill:#c80150;fill-rule:nonzero;"/><path d="M161.649,42.837l0,-28.119l18.711,0l0,4.55l-13.648,0l0,7.122l11.837,0l0,4.776l-11.837,0l0,7.122l13.648,0l0,4.549l-18.711,0Z" style="fill:#c80150;fill-rule:nonzero;"/><path d="M184.078,42.837l0,-28.119l10.786,0c3.294,0 5.853,0.779 7.679,2.337c1.825,1.557 2.737,3.784 2.737,6.679c0,4.31 -2.051,7.095 -6.154,8.358l7.39,10.745l-6.114,0l-6.711,-9.901l-4.549,0l0,9.901l-5.064,0Zm5.064,-14.553l5.599,0c1.715,0 3.06,-0.309 4.035,-0.927c0.974,-0.617 1.461,-1.784 1.461,-3.499c0,-1.743 -0.487,-2.916 -1.461,-3.52c-0.975,-0.604 -2.32,-0.906 -4.035,-0.906l-5.599,0l0,8.852Z" style="fill:#c80150;fill-rule:nonzero;"/><path d="M214.257,23.664c0.077,-0.321 0.162,-0.634 0.256,-0.938c0.535,-1.743 1.225,-3.133 2.069,-4.169c0.844,-1.036 1.863,-1.88 3.056,-2.532c1.194,-0.651 2.361,-1.087 3.5,-1.307c1.139,-0.219 2.367,-0.329 3.685,-0.329c1.317,0 2.545,0.11 3.684,0.329c1.139,0.22 2.306,0.656 3.5,1.307c1.194,0.652 2.22,1.496 3.077,2.532c0.858,1.036 1.554,2.426 2.09,4.169c0.535,1.743 0.802,3.767 0.802,6.072c0,2.278 -0.267,4.296 -0.802,6.052c-0.536,1.757 -1.232,3.146 -2.09,4.169c-0.857,1.022 -1.883,1.859 -3.077,2.511c-1.194,0.652 -2.361,1.088 -3.5,1.307c-1.139,0.22 -2.367,0.33 -3.684,0.33c-1.318,0 -2.546,-0.11 -3.685,-0.33c-1.139,-0.219 -2.306,-0.655 -3.5,-1.307c-1.193,-0.652 -2.212,-1.489 -3.056,-2.511c-0.844,-1.023 -1.534,-2.412 -2.069,-4.169c-0.095,-0.311 -0.182,-0.631 -0.26,-0.959l5.115,0c0.011,0.039 0.022,0.077 0.034,0.115c0.418,1.386 1.036,2.405 1.852,3.057c0.817,0.652 1.654,1.095 2.512,1.328c0.857,0.233 1.876,0.35 3.057,0.35c0.96,0 1.791,-0.062 2.49,-0.185c0.7,-0.124 1.421,-0.388 2.162,-0.793c0.741,-0.405 1.345,-0.967 1.811,-1.688c0.467,-0.72 0.855,-1.698 1.163,-2.933c0.309,-1.235 0.464,-2.697 0.464,-4.385c0,-2.086 -0.21,-3.822 -0.628,-5.208c-0.419,-1.386 -1.043,-2.405 -1.874,-3.057c-0.83,-0.652 -1.667,-1.087 -2.511,-1.307c-0.844,-0.219 -1.87,-0.329 -3.077,-0.329c-0.934,0 -1.75,0.062 -2.45,0.185c-0.7,0.124 -1.424,0.391 -2.172,0.803c-0.748,0.412 -1.351,0.967 -1.811,1.667c-0.364,0.554 -0.681,1.272 -0.95,2.153l-5.183,0Z" style="fill:#c80150;fill-rule:nonzero;"/><path d="M243.797,42.837l0,-28.119l5.743,0l14.451,20.832l0,-20.832l5.064,0l0,28.119l-5.661,0l-14.533,-20.996l0,20.996l-5.064,0Z" style="fill:#c80150;fill-rule:nonzero;"/></g><rect x="208.33" y="26.229" width="20.563" height="5.139" style="fill:#c80150;"/></svg>